<svg xmlns="http://www.w3.org/2000/svg" viewBox="0 0 159.11 94.17"><defs><style>.cls-1{fill:#60b7b7;}</style></defs><title>flor-loto-icono</title><g id="Layer_2" data-name="Layer 2"><g id="Layer_1-2" data-name="Layer 1"><path class="cls-1" d="M158.41,55.58c-2.92-3.35-8-5.88-14.37-7.29,2.09-6.09,2.64-11.8,1.32-16.06l-.32-1-.93-.52a22.77,22.77,0,0,0-10.91-2.34,45.17,45.17,0,0,0-9.09,1c0-8.06-1.85-15.11-5.38-19.18L118,9.38,117,9.28c-.45,0-.91-.06-1.39-.06-6,0-13.32,3.4-20.12,8.9C91.63,9.42,86.11,2.68,80.39.39l-1-.39-1,.39c-5.71,2.29-11.24,9-15.08,17.73-6.8-5.5-14.13-8.9-20.12-8.9-.47,0-.94,0-1.39.06l-1,.1-.7.81c-3.53,4.07-5.36,11.11-5.38,19.17a44.64,44.64,0,0,0-9-1,22.76,22.76,0,0,0-10.91,2.35l-.94.52-.31,1c-1.33,4.28-.77,10,1.34,16.12C8.63,49.77,3.59,52.28.7,55.58l-.7.8,0,1.06C.65,72,24.52,94.17,52.8,94.17a58,58,0,0,0,26.28-6.46l.32.3.5-.45A58,58,0,0,0,106.31,94h0c28.28,0,52.16-22.15,52.76-36.66l0-1ZM133.2,33.66a19.52,19.52,0,0,1,7.34,1.2c.56,3,0,7.5-1.83,12.55a57.85,57.85,0,0,0-6.54-.36,61.68,61.68,0,0,0-11,1c.08-.25.18-.53.25-.78a62.32,62.32,0,0,0,2.47-12.37A39.54,39.54,0,0,1,133.2,33.66ZM42.5,45.71a56.9,56.9,0,0,1-2-9.15A58.55,58.55,0,0,1,58.18,46.75a58.67,58.67,0,0,0,1.37,9.68,60.25,60.25,0,0,0-15.74-7C43.3,48.13,42.86,46.87,42.5,45.71ZM64.29,33.08a57.54,57.54,0,0,1,1.32-5.65A58.64,58.64,0,0,1,71,34.1a56.12,56.12,0,0,1,5.55,10.13,56.36,56.36,0,0,0-3.1,12,57.35,57.35,0,0,0-10-12A58.26,58.26,0,0,1,64.29,33.08Zm30.22,0a57.82,57.82,0,0,1,.87,11.13,57.78,57.78,0,0,0-10,12,56.87,56.87,0,0,0-3.11-12A55.51,55.51,0,0,1,87.82,34.1a58.64,58.64,0,0,1,5.38-6.67C93.71,29.25,94.16,31.13,94.51,33.08Zm23.8,3.51a56.56,56.56,0,0,1-2,9.12c-.36,1.18-.81,2.47-1.33,3.82a60.21,60.21,0,0,0-15.76,7.11,57.87,57.87,0,0,0,1.41-9.84A58.54,58.54,0,0,1,118.31,36.59ZM72.93,67q0,.66.09,1.32a56,56,0,0,0-6.22-6.45,50.13,50.13,0,0,1-2.53-9.09A50.29,50.29,0,0,1,72.93,67Zm21.6-14.15a50.91,50.91,0,0,1-2.68,9.4,57.76,57.76,0,0,0-6.09,6.46c0-.53.08-1.06.11-1.58A50.4,50.4,0,0,1,94.53,52.85ZM88.89,78.12A56.05,56.05,0,0,0,96.5,65.06a51.4,51.4,0,0,1,15.45-9A50.73,50.73,0,0,1,88.89,78.12ZM80.59,66c-.42,1.1-.81,2.22-1.16,3.39-.38-1.22-.79-2.39-1.22-3.53A50.54,50.54,0,0,1,79.4,53.25,50.69,50.69,0,0,1,80.59,66ZM62.14,64.67a56.28,56.28,0,0,0,7.77,13.45,50.71,50.71,0,0,1-23.12-22.2A51.61,51.61,0,0,1,62.14,64.67ZM66.61,82.4c-15.5-1-29.73-8.94-39.44-22.12a55.13,55.13,0,0,1-4.76-7.7c1.45-.13,2.95-.21,4.53-.21a59,59,0,0,1,13,1.52A56.54,56.54,0,0,0,66.61,82.4ZM118.89,54a58.9,58.9,0,0,1,13.28-1.6c1.49,0,2.91.07,4.29.18a55.47,55.47,0,0,1-4.77,7.73c-9.72,13.2-24,21.14-39.5,22.12A56.55,56.55,0,0,0,118.89,54Zm-3.51-39.43c2.21,3.26,3.56,9.16,3.4,16.21a62.3,62.3,0,0,0-18.14,9.15,64.52,64.52,0,0,0-.9-7.76,61.93,61.93,0,0,0-2.26-8.82C104,17.66,110.8,14.63,115.38,14.54ZM79.4,5.8c4,2.18,8.64,8.05,11.88,16a61.34,61.34,0,0,0-11.88,16,61.2,61.2,0,0,0-4-6.73,62.46,62.46,0,0,0-7.83-9.24C70.77,13.85,75.38,8,79.4,5.8Zm-36,8.74c4.58.09,11.33,3.12,17.9,8.78a61.56,61.56,0,0,0-3.16,16.55A62.34,62.34,0,0,0,40,30.74C39.87,23.69,41.21,17.79,43.43,14.54ZM18.32,34.86a19.45,19.45,0,0,1,7.34-1.2A40.17,40.17,0,0,1,35,34.89a62.47,62.47,0,0,0,2.46,12.39c.07.24.17.5.25.75a60.87,60.87,0,0,0-10.73-1,57.36,57.36,0,0,0-6.78.39C18.31,42.39,17.75,37.91,18.32,34.86ZM5.46,58.32c2.19-2,6.14-3.85,11.42-5a60.32,60.32,0,0,0,6,10.06C33.13,77.34,48,85.9,64.29,87.52A50.17,50.17,0,0,1,52.8,88.86C27,88.86,7.14,69.39,5.46,58.32ZM106.31,88.86a50.71,50.71,0,0,1-11.56-1.35c16.23-1.67,31-10.23,41.22-24.08a61.13,61.13,0,0,0,6-10.11c5.4,1.1,9.43,3,11.65,5C152,69.39,132.09,88.86,106.31,88.86Z"/></g></g></svg>