<svg xmlns="http://www.w3.org/2000/svg" viewBox="0 0 18.95 18.94"><defs><style>.cls-1{fill:#60b7b7;stroke:#60b7b7;stroke-miterlimit:10;stroke-width:0.5px;}</style></defs><title>indicador-menu</title><g id="Layer_2" data-name="Layer 2"><g id="Layer_1-2" data-name="Layer 1"><path class="cls-1" d="M18.51,9.43a3.19,3.19,0,0,1-2-1.67,3.92,3.92,0,0,0-3-2,3.88,3.88,0,0,0-2-3.36,3.63,3.63,0,0,1-1.65-2A.24.24,0,0,0,9.65.25a.22.22,0,0,0-.22.19,3.22,3.22,0,0,1-1.67,2,3.87,3.87,0,0,0-2,3,3.9,3.9,0,0,0-3.36,2,3.6,3.6,0,0,1-2,1.66.23.23,0,0,0-.17.23.22.22,0,0,0,.19.22,3.19,3.19,0,0,1,2,1.67,3.86,3.86,0,0,0,3,2,3.89,3.89,0,0,0,2,3.36,3.67,3.67,0,0,1,1.66,2,.23.23,0,0,0,.22.17h0a.22.22,0,0,0,.22-.18,3.19,3.19,0,0,1,1.67-2,3.89,3.89,0,0,0,2-3,3.85,3.85,0,0,0,3.35-2,3.69,3.69,0,0,1,2-1.65.23.23,0,0,0,.17-.23A.22.22,0,0,0,18.51,9.43Zm-5.79,3.62a3.44,3.44,0,0,1-3-3.32,3.43,3.43,0,0,1,3,3.29S12.72,13,12.72,13.05ZM6.22,5.9a3.4,3.4,0,0,1,3,3.32,3.44,3.44,0,0,1-3-3.3ZM8,2.82A4.08,4.08,0,0,0,9.67,1.14a4.28,4.28,0,0,0,1.64,1.68,3.44,3.44,0,0,1,1.76,2.94H13a3.89,3.89,0,0,0-3.47,2.4,4,4,0,0,0-.91-1.55A3.87,3.87,0,0,0,6.24,5.43,3.42,3.42,0,0,1,8,2.82Zm5.07,3.4a3.42,3.42,0,0,1-3.32,3,3.43,3.43,0,0,1,3.29-3ZM2.82,11A4,4,0,0,0,1.14,9.28,4.35,4.35,0,0,0,2.82,7.64,3.45,3.45,0,0,1,5.76,5.87v.06a3.89,3.89,0,0,0,2.4,3.48,3.86,3.86,0,0,0-2.73,3.3A3.43,3.43,0,0,1,2.82,11ZM9.22,9.7a3.44,3.44,0,0,1-3.3,3h0a3.42,3.42,0,0,1,3.32-3ZM11,16.12A4,4,0,0,0,9.28,17.8a4.42,4.42,0,0,0-1.64-1.68,3.44,3.44,0,0,1-1.77-2.93h.06a3.9,3.9,0,0,0,3.48-2.41,3.86,3.86,0,0,0,3.29,2.73A3.4,3.4,0,0,1,11,16.12Zm5.16-4.81a3.41,3.41,0,0,1-2.93,1.76V13a3.9,3.9,0,0,0-2.41-3.47,3.9,3.9,0,0,0,2.73-3.3A3.4,3.4,0,0,1,16.12,8,4.08,4.08,0,0,0,17.8,9.67,4.42,4.42,0,0,0,16.12,11.31Z"/></g></g></svg>