<svg xmlns="http://www.w3.org/2000/svg" viewBox="0 0 61.21 61.21"><defs><style>.cls-1{fill:#60b3b3;stroke:#60b3b3;stroke-miterlimit:10;stroke-width:3px;}</style></defs><title>instagram</title><g id="Layer_2" data-name="Layer 2"><g id="Layer_1-2" data-name="Layer 1"><path class="cls-1" d="M30.6,16.86A13.75,13.75,0,1,0,44.35,30.6,13.76,13.76,0,0,0,30.6,16.86Zm0,24.26A10.52,10.52,0,1,1,41.12,30.6,10.49,10.49,0,0,1,30.6,41.12Z"/><circle class="cls-1" cx="46.77" cy="12.82" r="3.23"/><path class="cls-1" d="M43.54,1.5H17.67A16.17,16.17,0,0,0,1.5,17.67V43.54A16.17,16.17,0,0,0,17.67,59.71H43.54A16.17,16.17,0,0,0,59.71,43.54V17.67A16.17,16.17,0,0,0,43.54,1.5Zm12.94,42A12.88,12.88,0,0,1,43.54,56.48H17.67A12.88,12.88,0,0,1,4.73,43.54V17.67A12.88,12.88,0,0,1,17.67,4.73H43.54A12.88,12.88,0,0,1,56.48,17.67Z"/></g></g></svg>