<svg xmlns="http://www.w3.org/2000/svg" viewBox="0 0 189.04 189"><defs><style>.cls-1{fill:#2e7676;}.cls-2{fill:#ea6e63;}</style></defs><title>karuna-good-karma</title><g id="Layer_2" data-name="Layer 2"><g id="Layer_1-2" data-name="Layer 1"><path class="cls-1" d="M50.2,69.52a7.52,7.52,0,0,1-2.56,1.28l-4.09,1.29,4.6,2.27-1.06,2.15-8.78-4.3A3,3,0,0,0,37,71.83c-.34,0-.63.26-.86.73l-.08.16-.5-.24,1-2a1.93,1.93,0,0,1,.64-.8,1.23,1.23,0,0,1,.89-.14,5.39,5.39,0,0,1,1.36.5l3.14,1.54L40.37,67A6.42,6.42,0,0,1,39.75,65a3.23,3.23,0,0,1,.32-1.84L40.64,62l.58.28a6.25,6.25,0,0,0-.61,1.89,3.08,3.08,0,0,0,.3,1.72l1.83,4L48.59,68a8,8,0,0,0,1.86-.8,3.72,3.72,0,0,0,1.19-1l.39.2a4.37,4.37,0,0,1-.42,1.29A5.43,5.43,0,0,1,50.2,69.52Z"/><path class="cls-1" d="M57.28,59.55a3.59,3.59,0,0,1-2.45,0l-1.07-.32L50.69,63l1.66,3.28-.6.75L45.69,55.2l.52-.65,10.26,3a2.49,2.49,0,0,0,2.63-.34l.36.29a3.5,3.5,0,0,1-.48.75A4.49,4.49,0,0,1,57.28,59.55ZM52.9,59l-5-1.45,2.4,4.69Z"/><path class="cls-1" d="M65.06,52.67a6.81,6.81,0,0,1-2.63-.53l-3.37-1.23-.58.47L62,55.7l-1.88,1.52L54,49.63a2.93,2.93,0,0,0-1.08-.92,1.1,1.1,0,0,0-1.08.3l-.15.12-.35-.43,4-3.2a8.36,8.36,0,0,1,3.1-1.63A2.62,2.62,0,0,1,61.22,45a2.55,2.55,0,0,1,.66,2.12,5.15,5.15,0,0,1-1,2.18l3.53,1.29a3.72,3.72,0,0,0,3,.14l.3.35a2.08,2.08,0,0,1-.34.44,6.32,6.32,0,0,1-.54.51A3.13,3.13,0,0,1,65.06,52.67Zm-6.18-2.56a2.7,2.7,0,0,0,1-1.59,3,3,0,0,0-2.45-3,2.57,2.57,0,0,0-1.73.61,6.3,6.3,0,0,0-.81.82L58,50.8Z"/><path class="cls-1" d="M66,46l-2-4a3,3,0,0,0-.81-1.09,1,1,0,0,0-1,0l-.15.07-.25-.49,1.82-.91a2,2,0,0,1,1-.26,1.21,1.21,0,0,1,.77.43A5.49,5.49,0,0,1,66.18,41l2.26,4.48a5.41,5.41,0,0,0,2,2.36,2.48,2.48,0,0,0,2.42,0,3.19,3.19,0,0,0,1.95-2.22A5.82,5.82,0,0,0,74,42L71,35.88l.82-.41,3.08,6.13a6.36,6.36,0,0,1,.81,4.18A4.59,4.59,0,0,1,73,48.7Q68.5,50.92,66,46Z"/><path class="cls-1" d="M78.29,36.5l2.1,8.88-.89.21-2.3-9.68a1.85,1.85,0,0,0-.65-1.1,1.61,1.61,0,0,0-1.35-.13l-.09,0L75,34.16l1.26-.3a4.74,4.74,0,0,1,1.7-.13,2.68,2.68,0,0,1,1.26.57L87.07,40l-1.95-8.24.89-.22,2.83,11.89-.83.2Z"/><path class="cls-1" d="M99,42.67a3.55,3.55,0,0,1-1.55-1.9l-.44-1-4.9,0-1.48,3.37h-1L95,31h.83l4.24,9.8c.48,1.13,1.12,1.74,1.93,1.82V43a3.47,3.47,0,0,1-.89.1A4.56,4.56,0,0,1,99,42.67Zm-2.35-3.75-2.08-4.79L92.51,39Z"/><path class="cls-1" d="M107.64,41.61a1.84,1.84,0,0,1-.22-1.41,1.86,1.86,0,0,1,2.25-1.37A1.85,1.85,0,0,1,111,41.07a1.84,1.84,0,0,1-2.24,1.38A1.81,1.81,0,0,1,107.64,41.61Z"/><path class="cls-1" d="M117.52,42.42l-1.1-5.78a8.27,8.27,0,0,0-.58-1.74,2.16,2.16,0,0,0-.89-1.08l.14-.34,1.85.78a2.7,2.7,0,0,1,1.34,1.2,5.62,5.62,0,0,1,.64,1.83l.84,4.46,5.56-4,1.1.46-6.5,4.65-2.08,4.94-2.21-.93Z"/><path class="cls-1" d="M123.82,50.44a5.7,5.7,0,0,1-.41-3.14,7.5,7.5,0,0,1,3.78-5.36,5.78,5.78,0,0,1,3.1-.66,6.37,6.37,0,0,1,5.18,3.66,5.68,5.68,0,0,1,.41,3.13,7,7,0,0,1-1.27,3.12,7.12,7.12,0,0,1-2.51,2.24,5.69,5.69,0,0,1-3.09.67A6,6,0,0,1,125.93,53,6.06,6.06,0,0,1,123.82,50.44Zm5.56,2.15a7.8,7.8,0,0,0,3.15-2.87,7.8,7.8,0,0,0,1.64-3.93,3,3,0,0,0-4.24-3,8,8,0,0,0-3.14,2.87,8,8,0,0,0-1.65,3.93,2.89,2.89,0,0,0,1.27,2.69A2.93,2.93,0,0,0,129.38,52.59Z"/><path class="cls-1" d="M134.08,58.69a6.29,6.29,0,0,1,.26-3.36,6.65,6.65,0,0,1,2-2.85A6.73,6.73,0,0,1,139.23,51a5.58,5.58,0,0,1,3.11.16A6.11,6.11,0,0,1,145,53a7.88,7.88,0,0,1,1.49,2.37,4,4,0,0,1,.3,2,2.14,2.14,0,0,1-.52,1,12.8,12.8,0,0,1-1.1,1.06l-.36-.42a4.13,4.13,0,0,0,1-2.57,3.93,3.93,0,0,0-1.08-2.44,3.41,3.41,0,0,0-3.18-1.3,7.15,7.15,0,0,0-3.59,1.8,7.35,7.35,0,0,0-2.71,3.79,3.6,3.6,0,0,0,.9,3.13,5.91,5.91,0,0,0,2,1.57l2.49-2.15a2,2,0,0,1,1.7-.49A4.53,4.53,0,0,1,144.72,62l-.35.3c-.52-.6-1.22-.51-2.1.25l-2.49,2.16a8,8,0,0,1-2.19-1.08,11.14,11.14,0,0,1-1.94-1.8A6.71,6.71,0,0,1,134.08,58.69Z"/><path class="cls-1" d="M144.3,74a3.56,3.56,0,0,1,1-2.25l.72-.85-2.28-4.34-3.67.22-.44-.85,13.3-.84.38.74L146.48,74a2.51,2.51,0,0,0-.74,2.55l-.41.21a3.36,3.36,0,0,1-.49-.74A4.42,4.42,0,0,1,144.3,74Zm2.26-3.8,3.32-4-5.25.35Z"/><path class="cls-1" d="M147.79,76.78a1.83,1.83,0,0,1,1.08-.94,1.8,1.8,0,0,1,1.42.11,1.78,1.78,0,0,1,.93,1.08,1.8,1.8,0,0,1-.1,1.42,1.78,1.78,0,0,1-1.08.93,1.8,1.8,0,0,1-1.42-.1,1.87,1.87,0,0,1-.83-2.5Z"/><path class="cls-1" d="M106.14,157l-3.33.54-.51-1.1-1.92.2-.24,1.16a64,64,0,0,1-6.42.29c-.16-1.62,0-3.2-.32-4.79L92.06,158l-2.67-.14c-.26-1.7-.5-3.33-.75-5h-.11c-.26,1.56-.52,3.12-.78,4.74a27.54,27.54,0,0,1-3.23-.37c.71-2.55,1.39-5,2.1-7.58l3.64.4.64,3.74a25.44,25.44,0,0,0,1.27-3.59h3.67c.33,2.28.65,4.53,1,6.78a51.71,51.71,0,0,0,2-6.94l3.4-.38Zm-4.44-2.11a5.51,5.51,0,0,0-.93-2.31l-.24,2.39Z"/><path class="cls-1" d="M67.48,147.06c0,1,0,1.87,0,2.75a7.85,7.85,0,0,0,.1.88,21.26,21.26,0,0,0,1.73-1.64c.56-.55,1.11-1.1,1.65-1.67s1.06-1.13,1.62-1.72l3.16,1.28c-.06,2.71-.13,5.4-.2,8.18a28.41,28.41,0,0,1-3.22-1.1l.13-1.17-1.81-.73-.77.89a44.93,44.93,0,0,1-5.65-2.8l.27-3.53-.09-.05-1.75,2.68-3-2,4.62-6.4,2.63,1.72-1.53,2.44.11.12c.72-.43,1.47-.82,2.16-1.3a1.13,1.13,0,0,1,1.43,0c.62.41,1.32.71,2.09,1.12C69.91,145.82,68.65,146.42,67.48,147.06Zm5.23,4.14a5.29,5.29,0,0,0,.33-2.43l-1.42,2Z"/><path class="cls-1" d="M150.42,117.91l-7.33-2.45c0-.22.08-.38.12-.54.36-1.31.72-2.62,1.09-3.93a7.9,7.9,0,0,1,1.3-2.71,3.53,3.53,0,0,1,4.46-1,3.4,3.4,0,0,1,1.79,2.73,8.71,8.71,0,0,1-.16,3.45c-.33,1.39-.73,2.77-1.1,4.16A2.67,2.67,0,0,1,150.42,117.91Zm-.78-4.63c.32-1.29.06-1.79-1.08-2.13a4.63,4.63,0,0,0-1.11-.21c-.92-.08-1.41.39-1.46,1.41Z"/><path class="cls-1" d="M44.37,116.59l-1.55-3a1.59,1.59,0,0,0,.45-1.38c-.12-.69-.48-1.09-1.16-1a9.67,9.67,0,0,0-2.27.49,1.23,1.23,0,0,0-.46,2,.8.8,0,0,0,1,.19l-.18-1.11,1.47-.4,1.33,4.7a3.3,3.3,0,0,1-4.64-.57,7.78,7.78,0,0,1-1.31-3.27,7.28,7.28,0,0,1,0-3.15,3.38,3.38,0,0,1,2.5-2.75,3.7,3.7,0,0,1,3.83,1,4.87,4.87,0,0,1,.73,1,9.86,9.86,0,0,1,1.24,4.92A3.23,3.23,0,0,1,44.37,116.59Z"/><path class="cls-1" d="M40,121.5a3.91,3.91,0,0,1,6.66-2.9,7.12,7.12,0,0,1,2,4.61,4.27,4.27,0,0,1-4.2,4.27,3.28,3.28,0,0,1-2.35-1.06A7.8,7.8,0,0,1,40,121.5Zm5.18-.6a5.58,5.58,0,0,0-2.51,1.19,1,1,0,0,0-.14,1.25c.21.47.56.76,1,.69a5.26,5.26,0,0,0,2.66-1.33,1,1,0,0,0,.1-1.19A1,1,0,0,0,45.16,120.9Z"/><path class="cls-1" d="M44.69,130.53a3.4,3.4,0,0,1,1.14-2.78c1.91-1.66,4.23-1.77,6.06.31a6.68,6.68,0,0,1,1.54,2.65,3.72,3.72,0,0,1-.69,3.48c-1.83,2.31-4.37,2.38-6.3.16A6.29,6.29,0,0,1,44.69,130.53Zm6.44.15a1.05,1.05,0,0,0-1.37-1.09A5.8,5.8,0,0,0,47.59,131a1,1,0,0,0-.07,1.37,1,1,0,0,0,1.32.35,6.18,6.18,0,0,0,2-1.53A2.1,2.1,0,0,0,51.13,130.68Z"/><path class="cls-1" d="M49.45,138.06,55.32,133c.1,0,.17,0,.19,0q1.45,1.59,2.89,3.19a3.3,3.3,0,0,1,.22.3c1.74,2.5.52,4.58-1.17,5.76a2.77,2.77,0,0,1-2.8.3,12.3,12.3,0,0,1-2-1.18,6.69,6.69,0,0,1-1.09-1C50.86,139.62,50.19,138.87,49.45,138.06Zm4.1,1.41c.64.63,1.1.7,1.79.1a7.28,7.28,0,0,0,1.21-1.33c.41-.59.27-1.06-.37-1.54Z"/><path class="cls-1" d="M127.49,141.17a2.12,2.12,0,0,1,.11,3,.35.35,0,0,0-.06.14s0,0,0,.16l3.93,1.27L128.41,148l-2.66-1.45-.1.08,1.43,2.21c-1,.65-2,1.24-3.11,1.83l-3.9-6.81,1.13-.67c.71-.43,1.41-.88,2.13-1.29a13.9,13.9,0,0,1,1.7-.81,3.17,3.17,0,0,1,2.49.14Zm-2.83,3.92c.76-.54.88-.91.49-1.42s-.79-.49-1.43,0Z"/><path class="cls-1" d="M82.78,153.5l1.66,3.71a28.82,28.82,0,0,1-3.67-.66l-.72-2.93c-.44.84-.46,1.71-.82,2.53a28.15,28.15,0,0,1-3.42-.92c.78-2.49,1.63-4.92,2.45-7.4.21,0,.37.07.53.12,1,.26,2,.51,3,.8a10.33,10.33,0,0,1,1.83.7,3.49,3.49,0,0,1,1.13,1,1.75,1.75,0,0,1-.81,2.78C83.6,153.31,83.25,153.37,82.78,153.5Zm-2.38-1.56c.91.15,1.29,0,1.4-.62s-.14-.84-1-1Z"/><path class="cls-1" d="M144.54,119.94l.9-2.42,1.73.62-.88,2.52.92.4,1-2.84,1.91.67a51.31,51.31,0,0,1-2.66,6.7l-7-3.48,2.31-5.8,1.76.61-.92,2.65Z"/><path class="cls-1" d="M121.5,148.46l-2.06,1.06.41.89,2.37-1.13,1,1.69a30.47,30.47,0,0,1-5.72,2.7l-3-7.15,5-2.31.91,1.65L118.18,147l.4.83,2-1Z"/><path class="cls-1" d="M134.73,131.52c1.14-1.63,2.21-3.18,3.32-4.79l1.6,1-1.39,2.22.86.62,1.31-2,1.56,1-1.3,2.07,2.41,1.72-2.24,3.06Z"/><path class="cls-1" d="M127.52,141.2l-1-1.5,5.09-4.55,1.33,1.4-1.27,1.3,4.06,4.24L133,144.55l-3.82-4.5c-.33.27-.63.53-.95.76a6,6,0,0,1-.72.36Z"/><path class="cls-1" d="M113.88,146.69l.72,1.8c-1.07.2-2.12.32-2.42,1.55a2.72,2.72,0,0,0,.92,2.5c.72.5,1.54.38,2.92-.48.14.29.28.58.4.86s.22.56.34.87a3.83,3.83,0,0,1-1.53.92,6.34,6.34,0,0,1-3.11.39,3.83,3.83,0,0,1-2.85-5.7,4.61,4.61,0,0,1,2.3-2C112.29,147.13,113,147,113.88,146.69Z"/><path class="cls-1" d="M147,126.8l-1.88,3.47-6.71-4.13,1.63-3Z"/><path class="cls-1" d="M137.61,140.16l-5.7-5.42,2.14-2.44,6,5.06C139.31,138.33,138.49,139.23,137.61,140.16Z"/><path class="cls-2" d="M130.82,16.61l4.32-1.81,5-2.12c1.32-.55,2.16,0,2.33,1.36q.6,4.84,1.22,9.67c0,.1.06.19.1.34.25,0,.49-.07.73-.12,2.95-.67,5.91-1.29,8.83-2.05,1.68-.43,2.52.35,2.4,2.06-.22,3.09-.32,6.19-.46,9.29,0,.12,0,.24,0,.35,1,0,2,0,2.89,0,1.86-.07,3.73-.18,5.59-.28.63,0,1.25-.09,1.88-.1a1.44,1.44,0,0,1,1.52,1.89c-.69,3.07-1.39,6.14-2.08,9.21-.06.26-.11.53-.18.87l1.75.24c2.79.35,5.59.73,8.39,1a1.55,1.55,0,0,1,1.31,2.29c-1.26,2.94-2.49,5.89-3.73,8.84-.06.16-.12.32-.22.55l.87.3,8.72,2.7a3.09,3.09,0,0,1,.43.14,1.43,1.43,0,0,1,.79,2.1c-.25.46-.56.9-.85,1.34L178,71.56l-.39.62a5.7,5.7,0,0,0,.5.31l8.26,4.25c.2.11.41.2.6.33a1.45,1.45,0,0,1,.35,2.17c-.33.41-.71.78-1.07,1.17L180.14,87l.57.48L188.05,93l.18.13a1.48,1.48,0,0,1,0,2.62c-1.17.91-2.36,1.8-3.55,2.7l-4.39,3.34-.14.14a3.6,3.6,0,0,0,.28.4q3.16,3.45,6.35,6.89a5.3,5.3,0,0,1,.45.51,1.4,1.4,0,0,1-.43,2.14c-.45.27-.93.49-1.4.73l-7.33,3.77-.58.33c.14.25.27.48.41.71,1.69,2.63,3.34,5.28,5.08,7.87a1.54,1.54,0,0,1-.91,2.46c-3,.89-6.06,1.87-9.09,2.82l-.63.21c.1.27.18.5.27.72q1.83,4.4,3.67,8.78a1.44,1.44,0,0,1-1.22,2.15l-.15,0-5.39.68-4,.51-.72.13c.21,1,.41,1.93.63,2.88l1.59,7a2.53,2.53,0,0,1,.07.38,1.38,1.38,0,0,1-1.47,1.66c-2-.07-4-.18-6-.27l-4.38-.2c0,.37,0,.69,0,1,.14,3.1.25,6.19.45,9.28a1.55,1.55,0,0,1-1.95,1.62c-3.13-.77-6.28-1.45-9.42-2.16-.16,0-.34,0-.57-.07-.08.48-.15.92-.21,1.36q-.56,4.33-1.1,8.69c-.16,1.32-1,1.84-2.23,1.33-2.91-1.2-5.81-2.42-8.72-3.63a6.76,6.76,0,0,0-.73-.26c-.36,1.12-.69,2.17-1,3.22l-2,6.35c0,.14-.08.29-.13.43a1.38,1.38,0,0,1-2.15.72c-1.41-.88-2.81-1.79-4.2-2.69l-4-2.58-.56-.33c-.11.19-.22.35-.31.52l-4.29,8.33c-.06.11-.11.23-.18.34a1.42,1.42,0,0,1-2.38.43c-.81-.72-1.59-1.47-2.39-2.21l-4.83-4.46-.39-.32-.53.65L96,188a5.52,5.52,0,0,1-.43.53,1.42,1.42,0,0,1-2.14,0c-.25-.28-.47-.59-.7-.89q-2.62-3.47-5.26-6.92c-.13-.18-.28-.35-.46-.57-.8.75-1.58,1.46-2.35,2.17l-5.16,4.78a1.47,1.47,0,0,1-2.53-.45c-1.41-2.7-2.79-5.42-4.18-8.13-.16-.31-.33-.61-.52-1l-.75.46-7.62,4.92-.38.25a1.45,1.45,0,0,1-2.24-.84c-.42-1.26-.8-2.54-1.2-3.82q-.82-2.7-1.67-5.41c-.06-.21-.15-.41-.25-.68l-.79.32-8.43,3.54a4.08,4.08,0,0,1-.42.17,1.38,1.38,0,0,1-1.94-1.07c-.19-1-.29-2.05-.42-3.07-.31-2.44-.62-4.89-.93-7.4-.59.12-1.13.22-1.66.34l-8.24,1.89A1.78,1.78,0,0,1,34,167a1.44,1.44,0,0,1-.75-1.45c.06-1.29.12-2.57.19-3.85q.13-3,.29-6v-.49c-.51,0-1,0-1.44,0-3,.13-5.89.27-8.84.42a1.51,1.51,0,0,1-1.3-.46,1.55,1.55,0,0,1-.3-1.48l1.53-6.7c.25-1.08.49-2.15.75-3.31-.75-.1-1.44-.22-2.13-.3-2.57-.33-5.15-.64-7.72-1l-.45-.07a1.41,1.41,0,0,1-1.16-2.12c1.2-2.9,2.43-5.8,3.65-8.7l.33-.83c-.52-.17-1-.34-1.5-.49l-8.3-2.58-.29-.09a1.35,1.35,0,0,1-.67-2.1c.74-1.18,1.5-2.34,2.25-3.5q1.58-2.44,3.16-4.89c.08-.12.14-.26.24-.44l-.68-.36-8.26-4.25c-.16-.08-.32-.16-.47-.25a1.35,1.35,0,0,1-.39-2c.37-.48.8-.91,1.21-1.35l5.3-5.7.68-.77c-.18-.16-.31-.3-.46-.42L1.17,96C1,95.9.8,95.76.63,95.62a1.37,1.37,0,0,1,0-2.31c.87-.69,1.76-1.34,2.65-2l5.05-3.84c.18-.13.35-.28.61-.49L7.42,85.3c-1.81-2-3.63-3.92-5.43-5.89-.91-1-.73-1.85.48-2.47C5.24,75.5,8,74.08,10.8,72.65l.75-.39c-.14-.24-.26-.45-.39-.65L6,63.55a1.39,1.39,0,0,1,.76-2.27L7,61.17l8.87-2.74.75-.25c-.08-.22-.12-.41-.2-.59C15.23,54.71,14,51.84,12.81,49c-.64-1.53-.2-2.29,1.43-2.49,3.2-.39,6.4-.8,9.6-1.21a2,2,0,0,0,.29-.11c-.06-.28-.11-.56-.17-.85-.7-3.07-1.4-6.13-2.09-9.2a1.4,1.4,0,0,1,1.53-1.84l9.44.46h.83c0-.83,0-1.63,0-2.42-.08-2-.19-4.08-.29-6.12,0-.6-.08-1.2-.09-1.81a1.4,1.4,0,0,1,1.86-1.52c1.63.35,3.24.73,4.86,1.1L44.79,24a3.43,3.43,0,0,0,.4.06,4.51,4.51,0,0,0,.13-.53l1-7.64c.09-.68.16-1.35.26-2a1.41,1.41,0,0,1,2.17-1.22c2.91,1.21,5.8,2.44,8.7,3.66l.75.29c.09-.21.18-.39.24-.57.9-2.91,1.79-5.82,2.69-8.73l.21-.65a1.45,1.45,0,0,1,2.24-.78c2.32,1.56,4.69,3,7,4.56l1.66,1.06c.14-.24.27-.44.38-.65l4.25-8.26.25-.47a1.38,1.38,0,0,1,2.18-.32c2,1.85,4,3.67,5.93,5.49.57.53,1.15,1,1.77,1.61l.51-.63L93.22.76A1.65,1.65,0,0,1,94.31,0a1.46,1.46,0,0,1,1.41.7c1,1.39,2.1,2.77,3.15,4.15l3.07,4c.26-.2.49-.37.71-.57,2.27-2.11,4.53-4.23,6.81-6.32a2.33,2.33,0,0,1,1-.57c.64-.18,1.19.17,1.57.89l3,5.78,1.45,2.82c.09.17.2.33.34.56.52-.32,1-.62,1.49-.93l7-4.55c1.22-.78,2.07-.46,2.51.94l2.79,9C130.64,16.15,130.72,16.34,130.82,16.61Zm43.43,77.9a78.92,78.92,0,1,0-79.07,78.87A78.83,78.83,0,0,0,174.25,94.51Z"/><path class="cls-2" d="M95.32,18.66A75.8,75.8,0,1,1,19.55,94.11,75.79,75.79,0,0,1,95.32,18.66ZM21.83,94.45A73.48,73.48,0,1,0,95.21,21,73.47,73.47,0,0,0,21.83,94.45Z"/><path class="cls-2" d="M95.3,23.15A71.31,71.31,0,1,1,24,94.3,71.21,71.21,0,0,1,95.3,23.15ZM27.58,94.43A67.73,67.73,0,1,0,95.46,26.76,67.69,67.69,0,0,0,27.58,94.43Z"/><path class="cls-2" d="M49.1,105.37h-1c-4.19,0-8.37,0-12.56,0a2.36,2.36,0,0,1-1.61-.52,16.2,16.2,0,0,1-1.42-1.33,3.13,3.13,0,0,1-.81-2.27c0-5.55,0-11.09,0-16.64a2.48,2.48,0,0,1,.41-1.41,6.56,6.56,0,0,1,1.76-1.84,2.93,2.93,0,0,1,1.76-.56c4.43,0,8.87,0,13.31,0h.83a47.29,47.29,0,0,1,19.5-26.07,47.31,47.31,0,0,1,45.61-3.52,47.5,47.5,0,0,1,25.85,29.59h14.14a2.28,2.28,0,0,1,1.42.41,10.89,10.89,0,0,1,1.27,1.07,3.72,3.72,0,0,1,1.11,2.76c-.06,5.5,0,11,0,16.49a2.57,2.57,0,0,1-.55,1.68,14.32,14.32,0,0,1-1.12,1.22,3.4,3.4,0,0,1-2.53.94c-4,0-8.06,0-12.1,0h-.85c-3.4,13.13-10.77,23.28-22.46,30.16a45.9,45.9,0,0,1-24.54,6.4,46.58,46.58,0,0,1-29-10.46A47.21,47.21,0,0,1,49.1,105.37Zm57.15,32.33c-.59-1.62-1.15-3.1-1.66-4.6-1-3-2.33-5.95-3.13-9-1.08-4.24-2.18-8.48-3.24-12.72-.46-1.85-.89-3.72-1.21-5.6a26.78,26.78,0,0,0-1.8-6.45,50.08,50.08,0,0,0-4.3-7.44A29,29,0,0,0,85,85.12a48,48,0,0,0-11-6.66,25.82,25.82,0,0,0-6.55-2,4.9,4.9,0,0,0-1.83,0,1,1,0,0,0,0,.2,10.26,10.26,0,0,1,1,7.38c-.3,1.53-.73,3-1.09,4.54a30.93,30.93,0,0,0-1,7.83,15,15,0,0,0,4,10.17c1.69,1.87,3.39,3.73,5,5.65a15.86,15.86,0,0,1,4.15,11.4c0,.87-.08,1.74-.13,2.68.22-.11.4-.19.56-.29a8.67,8.67,0,0,0,3.61-6,17,17,0,0,0,0-5.33c0-.4,0-.8-.06-1.17,1.17-.48,1.59-.32,2,.74.31.87.58,1.76.87,2.65q3.15,9.91,6.31,19.85l.69,2.13A44,44,0,0,0,106.25,137.7Zm27.8-65.31c-.44.23-.79.41-1.14.61A12.9,12.9,0,0,0,127,79.73a17.4,17.4,0,0,0-.75,7.61c.14,1.85.51,3.68.71,5.53a28,28,0,0,1,.31,5.71,17.1,17.1,0,0,1-1.9,6.63,25.29,25.29,0,0,1-4.86,6.22,30.86,30.86,0,0,0-4.27,4.79,11.39,11.39,0,0,0-1.65,9.09,13.1,13.1,0,0,0,2.73,5.66,1.24,1.24,0,0,1,.22,1.45c-.1.24-.17.49-.27.79,1.8-.8,6.19-3.92,6.74-4.81l-.44-.08-5.31-.68c-.3,0-.62-.08-.78-.39-.25-.48-.48-1-.76-1.54h.54l2.85.33a52,52,0,0,0,5.58.11,2.94,2.94,0,0,0,2.42-1.54l-4.08-.52c-1.35-.18-2.7-.32-4-.55a34.16,34.16,0,0,1-4-.69v-1.26a15.25,15.25,0,0,1,2-.09c1.53.11,3,.3,4.58.44,1,.1,2,.18,3,.22,1.41,0,2.81.07,4.22.09a.71.71,0,0,0,.48-.15,4.75,4.75,0,0,0,.89-1.25c-4.78-.62-9.41-1.7-14.16-1.75-.13-1,0-1.14.81-1.21.57,0,1.15-.11,1.73-.15a18.32,18.32,0,0,1,2.86-.13c2.25.2,4.49.54,6.74.79,1,.12,2.1.17,3.16.21a.77.77,0,0,0,.59-.2c.38-.52.69-1.09,1.07-1.71l-3.69-.62c-1.17-.18-2.33-.36-3.51-.49s-2.4-.23-3.6-.28-2.37,0-3.73,0c.5-.51.75-1,1.37-1.14a24,24,0,0,1,5.48-.28c2.4.21,4.79.57,7.19.84a5.92,5.92,0,0,0,1.26,0,.57.57,0,0,0,.43-.24c.39-.78.75-1.57,1.18-2.48l-.79.11a9.14,9.14,0,0,1-1.87.2c-1-.07-2-.3-3-.44a40.33,40.33,0,0,0-6.77-.45,4.07,4.07,0,0,1-.41-.06,1.64,1.64,0,0,1,1.41-1c.65-.08,1.3-.19,2-.22,1.25,0,2.51-.09,3.76,0a29.77,29.77,0,0,0,6.4,0,12,12,0,0,0,.79-2.41c-.35,0-.62,0-.89,0-1.23,0-2.46,0-3.68,0a26.3,26.3,0,0,0-6.69.38,2.09,2.09,0,0,1-.44,0,4.69,4.69,0,0,0,.41-.72,1.57,1.57,0,0,1,1.76-1c1.33,0,2.66.1,4,.17.67,0,1.35.16,2,.14,1.13,0,2.26-.14,3.38-.23.2,0,.39,0,.68-.08,0-.57.09-1.12.1-1.66,0-.8,0-.78-.8-.8-1.81,0-3.6.23-5.42,0a29.48,29.48,0,0,0-3.39,0,4.48,4.48,0,0,1-.59-.07c.16-.52.32-1,.44-1.43a.53.53,0,0,1,.68-.42c.77.1,1.54.24,2.32.3a12.45,12.45,0,0,0,3,.22c1.07-.16,2.15-.27,3.22-.4a5.77,5.77,0,0,1,.72,0l.42,1.09a2.55,2.55,0,0,0,.34,0c4.66,0,9.32,0,14,0a2.22,2.22,0,0,0,.87-.21,5.46,5.46,0,0,0,2-1.57,2.3,2.3,0,0,0,.54-1.52q0-6.89,0-13.76a2.32,2.32,0,0,0-.64-1.71,7.2,7.2,0,0,0-1-.92,3.64,3.64,0,0,0-2.38-.79c-4.18,0-8.36,0-12.55,0h-.83l-.08.74c-.09,0-.12,0-.14,0l-.38-.25a18.56,18.56,0,0,0-4.65-2.32,1.57,1.57,0,0,0-1.09,0,18.9,18.9,0,0,0-4.36,2.23c-.15.11-.32.2-.52.32a2.14,2.14,0,0,1,.68-1.89,8.83,8.83,0,0,1,4.55-2.22,1.53,1.53,0,0,1,.52,0,11.8,11.8,0,0,1,3.2,1.11c.14.08.29.14.5.24a1.58,1.58,0,0,0-.71-1.35c-.93-.54-1.88-1.06-2.81-1.61a.94.94,0,0,0-.93,0,11.63,11.63,0,0,0-4.08,2.92,2.52,2.52,0,0,1-.35.3,11.4,11.4,0,0,1,5-6.15L136,76.58A22.55,22.55,0,0,0,134.05,72.39ZM73.17,125.62c-.28.62-.5,1.08-.71,1.55a.78.78,0,0,1-.83.52,5.42,5.42,0,0,0-.9,0c-1.17.14-2.34.3-3.51.47-.25,0-.5.1-.86.18a42.75,42.75,0,0,0,6.26,4.46l-.78-1.44c.06-.12.07-.18.11-.21a13.65,13.65,0,0,0,3.39-7,8.93,8.93,0,0,0-.31-5,13,13,0,0,0-2.26-3.73c-1.85-2.2-3.74-4.37-5.6-6.55a21.66,21.66,0,0,1-3.5-5.18,17.86,17.86,0,0,1-1.3-9.38c.28-2.73.74-5.43,1.1-8.15A12.49,12.49,0,0,0,63.18,81a13.31,13.31,0,0,0-6.3-7.79c-.17-.1-.35-.17-.59-.28l-1.36,2.68.11.09,1.12-.77C58.4,76.52,60.25,78.36,61,81a.71.71,0,0,1-.3-.23A9.17,9.17,0,0,0,58,78.49c-2.06-1.1-1.48-1.14-3.61,0l-.2.11a1.86,1.86,0,0,0-1,1.66c.58-.21,1.09-.42,1.62-.57a4.11,4.11,0,0,1,1.61-.31,7.79,7.79,0,0,1,4.84,2.57,1.65,1.65,0,0,1,.32,1.41.43.43,0,0,1-.17,0,1.35,1.35,0,0,1-.26-.15,17.73,17.73,0,0,0-4.27-2.23,1.58,1.58,0,0,0-1.17,0,15.3,15.3,0,0,0-3.4,1.6c-.51.35-1.06.63-1.64,1l-.08-.75a2.88,2.88,0,0,0-.35,0H37.11a2.18,2.18,0,0,0-.93.24,5.4,5.4,0,0,0-2,1.59,2.06,2.06,0,0,0-.48,1.38c0,4.66,0,9.32,0,14a2.12,2.12,0,0,0,.56,1.5,5.83,5.83,0,0,0,.74.75,4,4,0,0,0,2.75,1c4.08,0,8.16,0,12.24,0h.89l.44-1.19c.81.09,1.61.17,2.4.27a10.5,10.5,0,0,0,3.45.09c1-.22,2.08-.29,3.13-.42.29,0,.57,0,.67.33.16.5.31,1,.5,1.63-1.69,0-3.28-.12-4.85,0s-3.19-.29-4.84,0l.55,2.4c1,.08,1.83.17,2.71.22a7.5,7.5,0,0,0,1.34,0,32,32,0,0,1,5.27-.25,1.8,1.8,0,0,1,1.8,1.73,2.21,2.21,0,0,1-.37,0,23,23,0,0,0-6.09-.37c-.82,0-1.65,0-2.47,0H52.71l.84,2.48a17.41,17.41,0,0,0,4.67,0c1.4,0,2.81-.07,4.22,0a21.7,21.7,0,0,1,2.4.25,1.55,1.55,0,0,1,1.37,1,46.52,46.52,0,0,0-8.78.65,5.37,5.37,0,0,1-2.52.11,1.73,1.73,0,0,0-.53,0c.39.81.74,1.55,1.09,2.3a.55.55,0,0,0,.62.31c1-.14,2.09-.29,3.13-.46a30.26,30.26,0,0,1,9.45-.21,2.25,2.25,0,0,1,1.58,1.23c-4.68-.32-9.12.45-13.66,1.25.36.59.7,1.11,1,1.66a.73.73,0,0,0,.82.38c2.12-.27,4.24-.5,6.36-.8a31.92,31.92,0,0,1,6.84,0c.78.06,1,.35,1.15,1.22-2.24.23-4.48.41-6.72.71s-4.41.72-6.64,1.08c.52,1,1.15,1.75,2.38,1.48a4.75,4.75,0,0,1,.75,0l5.56-.4c.75-.06,1.5-.17,2.25-.25s1.54-.18,2.32-.19c1.14,0,1.18.06,1.15,1.19a1.65,1.65,0,0,1-.08.35l-3.72.5c-1.27.18-2.54.34-3.81.54s-2.45.26-3.78.54c.5.51.89.94,1.31,1.33a.93.93,0,0,0,.53.22c.53,0,1.06.07,1.59.08a35.59,35.59,0,0,0,6.6-.57A5.18,5.18,0,0,1,73.17,125.62Zm49.91-47a.7.7,0,0,0-.17-.06,2.45,2.45,0,0,0-.37.08,53.39,53.39,0,0,0-14,6.75,20.81,20.81,0,0,0-7.84,9.72,23.6,23.6,0,0,0-.89,14.66,62,62,0,0,0,2.79,7.81,13,13,0,0,0,4.14,5.39,26.49,26.49,0,0,0,5.55,3.34c.14.06.3.1.52.17a17.38,17.38,0,0,1-.39-4.44,12.87,12.87,0,0,1,2.93-8.3c1.6-1.91,3.22-3.81,4.83-5.71a26.9,26.9,0,0,0,3.4-4.8A11.27,11.27,0,0,0,125,96.43c-.16-1.25-.4-2.48-.62-3.72-.54-3-1.12-6-1.37-9a28.85,28.85,0,0,1-.06-2.94C123,80,123,79.3,123.08,78.59Zm8.81-9.51A44.27,44.27,0,0,0,92.56,50c-15.67.93-28.22,10.15-34.11,19.6.29.17.56.34.85.5a24.51,24.51,0,0,0,4.39,2.16,5.6,5.6,0,0,0,3.11.27l1-.24c3.37-.75,6.74-1.46,10.16-1.9,2.31-.3,4.63-.6,7-.78,3-.24,5.92-.44,8.88-.51s5.69,0,8.53.09c1.31,0,2.62.1,3.92.21,1.8.15,3.6.33,5.4.57s3.58.52,5.35.86,3.59.79,5.37,1.23a7.5,7.5,0,0,0,5.15-.54c1.11-.52,2.17-1.16,3.25-1.76C131.16,69.52,131.52,69.3,131.89,69.08Zm-32,2.72a4,4,0,0,0-1.15,1.87c-.24.71-.4,1.45-.61,2.18-.12.43-.38.64-.73.62s-.56-.25-.64-.72c-.06-.32-.09-.65-.17-1a5.94,5.94,0,0,0-1.26-2.63A7.52,7.52,0,0,0,94.06,75c-.07.27-.12.54-.2.8a.68.68,0,0,1-1.35-.07c0-.15,0-.3-.07-.44a11.36,11.36,0,0,0-.21-1.19,3.61,3.61,0,0,0-1.21-2,6.66,6.66,0,0,0-.56,1c-.24.74-.42,1.5-.62,2.25a1.88,1.88,0,0,1-.16.65,1.12,1.12,0,0,1-.56.43.55.55,0,0,1-.65-.4,4.33,4.33,0,0,1-.18-.73A8.69,8.69,0,0,0,86.89,72a5,5,0,0,0-.45.8c-.31.93-.62,1.86-.89,2.81a1.09,1.09,0,0,1-.69.89c-.54-.1-.71-.44-.78-1a9.5,9.5,0,0,0-1.3-3.28,5,5,0,0,0-.34.57c-.36.93-.72,1.88-1.07,2.82-.07.18-.12.38-.21.56a.58.58,0,0,1-.67.37,1.08,1.08,0,0,1-.55-.44,2.47,2.47,0,0,1-.19-.72,11.34,11.34,0,0,0-1-2.67,5.14,5.14,0,0,0-.48.77c-.31.77-.6,1.54-.87,2.33-.18.51-.31,1-.47,1.61l.54.31A56.36,56.36,0,0,1,84,81.72a39.67,39.67,0,0,1,8.18,7.34,24.42,24.42,0,0,1,3.45,5.4,4.72,4.72,0,0,0,.83,1.24.82.82,0,0,0,1.4-.11,6,6,0,0,0,.61-1.21,25.8,25.8,0,0,1,6.83-9.76,22,22,0,0,1,6-3.85c1.5-.66,3-1.21,4.55-1.85,1.25-.52,2.49-1.08,3.73-1.65.18-.08.42-.29.43-.44,0-.93,0-1.86,0-2.79,0-.05-.09-.1-.17-.18a3.41,3.41,0,0,0-.38.21,6.63,6.63,0,0,0-1.93,2.49,2,2,0,0,1-.34.57,1,1,0,0,1-.66.22.57.57,0,0,1-.51-.57c0-.17,0-.35,0-.52,0-.83-.07-1.66-.13-2.48s-.56-.81-1.11-.5a6.18,6.18,0,0,0-2.34,2.6c-.13.24-.24.5-.38.74a.61.61,0,0,1-.78.29.65.65,0,0,1-.45-.7c0-.15.07-.3.07-.45a18.12,18.12,0,0,0,0-2.33c-.11-.88-.29-1-1.17-1a.71.71,0,0,0-.85.45,9,9,0,0,0-.44,1.12c-.15.55-.25,1.12-.38,1.69a.7.7,0,0,1-.63.65c-.36,0-.6-.16-.75-.61,0-.15,0-.3-.09-.45a8.76,8.76,0,0,0-1.13-2.78c-.43-.65-1-.64-1.29.08-.39.92-.7,1.88-1,2.83-.07.19-.07.42-.19.56s-.43.45-.64.44-.47-.28-.59-.5a3.46,3.46,0,0,1-.21-.87A7.37,7.37,0,0,0,99.92,71.8ZM83,126.73c-.18.25-.29.38-.38.52a14.84,14.84,0,0,1-4.29,4.7,6.66,6.66,0,0,1-4.88,1.29c2.29,1.8,11.32,5,13.9,5C86,134.39,84.55,130.6,83,126.73Zm33.62,6.89c-.51-.2-.91-.33-1.28-.51a32.06,32.06,0,0,1-5.14-3.29c-1.73-1.35-3.4-2.76-5.1-4.14-.2-.16-.41-.31-.62-.46l-.09.1c1.45,3.86,2.89,7.73,4.35,11.65A41.46,41.46,0,0,0,116.63,133.62Zm-41-56.75.16-.12c-.36-1.09-.7-2.18-1.08-3.26-.17-.45-.52-.47-.76-.06a4.37,4.37,0,0,0-.6,2.37Zm22.52-5.14-1.32.07.69,1.26Zm-5.48.07L93.29,73l.63-1.19Zm9.08.12a3.71,3.71,0,0,0,.72,1.23c.08-.49.39-.79.33-1.23Zm-21.65.53.5,1.18.55-1.27ZM76.35,74h.19l.53-1.23L76,73ZM88.43,71.9,89,73l.49-1.1ZM84.7,73.05h.16l.42-1-1,.15Zm28.44-.27-1,0,.18.88ZM69.51,74.17a3.38,3.38,0,0,0,1.28.45C70.18,73.87,70.18,73.87,69.51,74.17Zm53.4,1.38,1.21-.68C123.47,74.65,123.36,74.71,122.91,75.55Zm-16-3.36.41.77.31-.72Zm.82,3.32c-.17-.13-.26-.26-.37-.28s-.26.14-.25.19.11.29.21.31S107.53,75.62,107.72,75.51Zm9.13,1.19.31-.36a1.18,1.18,0,0,0-.31-.25c-.06,0-.24.14-.23.21S116.73,76.52,116.85,76.7ZM76.77,76c-.18-.12-.3-.26-.4-.24s-.18.18-.28.28c.11.08.21.22.31.23S76.61,76.11,76.77,76Zm16.9-.57c-.19-.11-.32-.24-.41-.22s-.19.18-.22.3.17.2.24.19S93.49,75.54,93.67,75.41Zm18.33.42c-.18-.12-.3-.25-.4-.24s-.18.18-.27.28c.1.09.2.24.3.24S111.84,76,112,75.83Zm6-2.26-.65-.18.08.7ZM80.63,75.91c.12-.14.27-.27.24-.31a.49.49,0,0,0-.28-.25c-.06,0-.24.17-.23.21S80.51,75.77,80.63,75.91Zm17.23-.48c-.17-.12-.26-.24-.37-.25s-.24.14-.22.2.12.27.21.29S97.68,75.55,97.86,75.43Zm4.49.28c.11-.19.26-.31.24-.41s-.19-.19-.31-.21-.21.16-.2.23S102.22,75.54,102.35,75.71Zm-12.86-.26c-.16-.11-.25-.23-.36-.25s-.22.18-.21.23a.53.53,0,0,0,.26.27S89.34,75.57,89.49,75.45Zm-4.69-.34c-.11.14-.25.25-.23.31s.17.19.26.29c.08-.11.2-.2.22-.32S84.91,75.23,84.8,75.11Zm36.75-.39.52-.34C121.5,74.22,121.5,74.22,121.55,74.72ZM71.91,73.56l0,.18.35.14.08-.27Z"/><path class="cls-2" d="M84.9,105.72a1.85,1.85,0,0,1-1.74-.26,11,11,0,0,1-1.92-1.81c-.14-.18-.3-.33-.49-.54l-.64.53a3.3,3.3,0,0,1-5.33-1.88,2.76,2.76,0,0,1,.74-2.36,4,4,0,0,1,.5-.46c-1.06-.74-2.14-1.39-3.11-2.17a15.41,15.41,0,0,1-1.72-1.88.41.41,0,0,1,.1-.7c.15-.09.3-.16.51-.26a10,10,0,0,1,.81,1.1,1.77,1.77,0,0,0,1.57.86c1.2.1,2.4.21,3.6.36a5.74,5.74,0,0,1,3,1,5.86,5.86,0,0,1,1.08,1,7.42,7.42,0,0,1,1.28,3c.09.57.23,1.13.35,1.7a3.5,3.5,0,0,0,1.06,2C84.75,105.2,84.79,105.47,84.9,105.72Z"/><path class="cls-2" d="M86.23,100.76a8.11,8.11,0,0,0-.42-4.55,4.79,4.79,0,0,0-2.9-3.09,38.08,38.08,0,0,1-5.55-2.73,5.88,5.88,0,0,1-2.62-3.49c-.23-.72-.39-1.45-.59-2.23a1.08,1.08,0,0,1,1.16.53,4.88,4.88,0,0,0,1.92,2,11.8,11.8,0,0,0,1.89.75c1.38.39,2.75.79,4.09,1.31a8.47,8.47,0,0,1,2.9,2.11c.29.28.5.63.78.92a4.85,4.85,0,0,1,1.29,3.51,8.7,8.7,0,0,1-.13,2.33A5.13,5.13,0,0,1,86.23,100.76Z"/><path class="cls-2" d="M73,102c.09.2.16.33.21.47a5.47,5.47,0,0,0,4.63,3.76c.37,0,.73.11,1.07.17.15,1.24.12,1.24-1,1.39a5.59,5.59,0,0,1-5.37-3.06,3.28,3.28,0,0,1,0-2.29C72.55,102.27,72.78,102.16,73,102Z"/><path class="cls-2" d="M95,136.14l.62-2L94,132.91l0-.13h2l.77-2.18.76,2.17h2l0,.15L98,134.15l.6,1.93-.11.11L96.83,135l-1.71,1.21Z"/><path class="cls-2" d="M95.14,117.71,93.5,119l.61,2L94,121l-1.7-1.19-1.87,1.31.68-2.19-1.65-1.21.05-.13h2l.69-2,.13,0,.7,2h2Z"/><path class="cls-2" d="M92,129l.61-2-1.69-1.28c.75-.23,1.45,0,2.16-.17l.74-2.12.74,2.16h2l.07.14L95,127l.6,2-.11.07-1.69-1.2-1.7,1.2Z"/><path class="cls-2" d="M146.51,92.66l.43-.09a1.26,1.26,0,0,1,1.62.72c.29.55.29.55.94.81.08-.42.13-.83.23-1.23A3.21,3.21,0,0,1,153,90.49a2.16,2.16,0,0,1,2.15,2.19,4.27,4.27,0,0,1-2,3.7,2.05,2.05,0,0,1-1.66.13c-.23,0-.4-.12-.6.11s-.47.12-.68,0a2,2,0,0,1-.94-1.48c0-.44,0-.43-.33-.7-.1.72-.15,1.5-.31,2.25a5.53,5.53,0,0,1-1.29,2.45,4.44,4.44,0,0,1-.38.37,3,3,0,0,1-3.14.72,3.1,3.1,0,0,1-2-2.66,7.3,7.3,0,0,0-1.73-4,4.34,4.34,0,0,1-.35-.49s0,0,.07-.14c1.32,1,2.63,2,3.06,3.76a3.75,3.75,0,0,0,.2.65,1.24,1.24,0,0,0,1.36.72,3.51,3.51,0,0,0,2.84-3.49c-.06-.72-.39-.91-1-.53a4,4,0,0,0-.9.8.8.8,0,0,1-.87.27.74.74,0,0,1-.62-.67,3.83,3.83,0,0,1-.08-.67c0-.74,0-.79.64-1.1a2,2,0,0,0,1.06-1,1.66,1.66,0,0,0,.15-.87c-.07-.56-.44-.72-.92-.43a3,3,0,0,0-.62.55c-.33.37-.64.78-1,1.17l-.46.6c-.48-.14-.57-.58-.81-.88l-.75-.92c.87-.44,1.74-.9,2.63-1.34a3,3,0,0,1,1.68-.34,1.46,1.46,0,0,1,1.35,1.22A3.59,3.59,0,0,1,146.51,92.66Zm4.68,3.4a2.7,2.7,0,0,0,2.34-2.59,1,1,0,0,0-1.31-1.06,1.84,1.84,0,0,0-1.3,2.11C151,95,151.1,95.55,151.19,96.06Z"/><path class="cls-2" d="M139.3,87.11c-.89-.5-1.61-1-2.37-1.32s-1.81-.75-2.71-1.12a1.49,1.49,0,0,0-1.1,0,18,18,0,0,0-4.51,2.22,2.77,2.77,0,0,1-.27.12,3.36,3.36,0,0,1-.13-.47c-.07-.57-.13-1.15-.17-1.72a.76.76,0,0,1,.55-.86,17.72,17.72,0,0,1,4.95-1.24,6,6,0,0,1,1.55.22A20.48,20.48,0,0,1,138.93,84a.76.76,0,0,1,.59.84Z"/><path class="cls-2" d="M129.09,90.41a27.34,27.34,0,0,1,9.42,0,5.68,5.68,0,0,1,0,.73c-.05.35-.26.5-.63.5-.93,0-1.85,0-2.77,0a19.87,19.87,0,0,1-2.78-.08,22.58,22.58,0,0,0-2.33-.08C129.07,91.58,128.94,91.44,129.09,90.41Z"/><path class="cls-2" d="M129.47,93.84a11.91,11.91,0,0,1,3.45.21,6.53,6.53,0,0,0,2.16,0,11.4,11.4,0,0,1,2.92-.18c0,.1.09.16.09.23,0,1.22.14,1.41-1.19,1.4a23,23,0,0,0-2.47.25,3.89,3.89,0,0,1-.68,0l-3.75-.4c-.36,0-.56-.17-.53-.56S129.47,94.22,129.47,93.84Z"/><path class="cls-2" d="M129.5,97.92a7.18,7.18,0,0,1,1,0c.92.12,1.84.25,2.75.43a7.68,7.68,0,0,0,2.53-.2l2.19-.27c0,.29.07.48.1.67.13.85.08.91-.79,1l-3.06.38a1.71,1.71,0,0,1-.45,0c-1.24-.17-2.48-.34-3.71-.53-.79-.13-.78-.15-.66-1C129.47,98.32,129.48,98.15,129.5,97.92Z"/><path class="cls-2" d="M128.64,88.79l-.23-.94c.37-.13.69-.28,1-.37.58-.18,1.18-.29,1.75-.48a9.12,9.12,0,0,1,5.4.13c.84.23,1.67.48,2.57.74l-.23,1A12.83,12.83,0,0,0,128.64,88.79Z"/><path class="cls-2" d="M146.49,88.17l.63.53a2.62,2.62,0,0,0,2.12.54,1.77,1.77,0,0,0,1.47-1,1,1,0,0,1,1.23-.63.54.54,0,0,1,.51.74.37.37,0,0,1,0,.15,3.64,3.64,0,0,1-2.75,2.11A2.68,2.68,0,0,1,147,89.32c-.23-.34-.41-.71-.62-1.07Z"/><path class="cls-2" d="M147.81,85.75a1.92,1.92,0,0,1,1.66.45,1.11,1.11,0,0,1,.38,1.22.63.63,0,0,1-1.07.43,1.76,1.76,0,0,1-.71-1.12C148,86.44,147.92,86.15,147.81,85.75Z"/><path class="cls-2" d="M44.57,94.32A14.61,14.61,0,0,1,44.46,96a5.79,5.79,0,0,1-1.6,3.27,3,3,0,0,1-3.29,1,3.17,3.17,0,0,1-2.07-2.82,7,7,0,0,0-1.57-3.7,2.74,2.74,0,0,1-.46-.73,6.69,6.69,0,0,1,3.09,3.61,4.56,4.56,0,0,0,.21.72,1.24,1.24,0,0,0,1.36.72A3.51,3.51,0,0,0,43,94.52c-.06-.72-.39-.91-1-.53a4,4,0,0,0-.9.8.8.8,0,0,1-.87.27.76.76,0,0,1-.63-.67,5.08,5.08,0,0,1-.07-.67c0-.74,0-.79.64-1.1a2,2,0,0,0,1.17-1.3,1.5,1.5,0,0,0,0-.73c-.12-.44-.44-.58-.81-.32a6.37,6.37,0,0,0-1,1c-.38.44-.7.91-1.06,1.38-.48-.14-.57-.58-.81-.88l-.75-.92c.86-.44,1.74-.9,2.63-1.33a2.88,2.88,0,0,1,1.68-.35,1.47,1.47,0,0,1,1.35,1.22,3.43,3.43,0,0,1-.31,2.18c.07,0,.12.08.15.07,1.09-.25,1.48-.1,1.93.89.17.39.51.43.84.65.1-.49.15-.93.27-1.35a3.21,3.21,0,0,1,3.25-2.31,2.15,2.15,0,0,1,2.15,2.18,4.26,4.26,0,0,1-2,3.71,2.05,2.05,0,0,1-1.66.13c-.23,0-.39-.12-.6.1s-.52.11-.75-.07A2,2,0,0,1,45,95.1.82.82,0,0,0,44.57,94.32Zm2.26,1.75a2.73,2.73,0,0,0,2.33-2.85.82.82,0,0,0-.81-.83,1.4,1.4,0,0,0-1.33.54,2,2,0,0,0-.45,1.69C46.66,95.08,46.74,95.55,46.83,96.07Z"/><path class="cls-2" d="M50.73,87.08a9.34,9.34,0,0,1-.27-2.43.58.58,0,0,1,.41-.56,17.7,17.7,0,0,1,5.39-1.34,4.23,4.23,0,0,1,1.49.2c1.16.31,2.3.69,3.45,1a.64.64,0,0,1,.49.74A12.56,12.56,0,0,1,61.43,87l-.57-.33a17.83,17.83,0,0,0-4.2-2,1.47,1.47,0,0,0-.95,0,18.67,18.67,0,0,0-4.49,2.13C51.09,86.9,50.93,87,50.73,87.08Z"/><path class="cls-2" d="M51.42,90.52c2.55-.57,7.44-.7,9.28,0,0,.06.06.13,0,.2-.12.9-.13.86-1.07.87s-2.16.1-3.24.16c-.29,0-.59,0-.88,0L52,91.69a.52.52,0,0,1-.56-.4c0-.1,0-.2-.06-.3S51.42,90.7,51.42,90.52Z"/><path class="cls-2" d="M60.21,95.32l-2.53.23c-.42,0-.84.17-1.26.18-.7,0-1.4-.07-2.1-.12l-1.72-.13c-.63,0-.69-.09-.71-.7,0-.27,0-.55,0-.92.47,0,.92,0,1.36,0a5.87,5.87,0,0,1,1.19.14,8.59,8.59,0,0,0,3.35-.09,7.69,7.69,0,0,1,2.54,0Z"/><path class="cls-2" d="M60.35,99.37l-2.73.34a2.83,2.83,0,0,0-.3,0c-1.33.44-2.63,0-3.94-.1-.4,0-.8-.07-1.2-.13a.45.45,0,0,1-.42-.59c.05-.29.12-.58.19-1a3.56,3.56,0,0,1,.65,0c.89.12,1.79.24,2.67.42a7.83,7.83,0,0,0,2.46-.23c.67-.07,1.34-.2,2-.26.47-.05.57.07.6.55,0,.17,0,.35,0,.53Z"/><path class="cls-2" d="M61.34,87.74l-.25,1.05a12.34,12.34,0,0,0-10,0l-.18-.42c-.14-.36,0-.57.35-.67q2-.49,4.08-1a4.44,4.44,0,0,1,2.23.08Z"/><path class="cls-2" d="M42.13,88.17c.21.18.41.36.63.53a2.64,2.64,0,0,0,2.2.53,1.78,1.78,0,0,0,1.4-1,1,1,0,0,1,1.24-.61.53.53,0,0,1,.5.69.51.51,0,0,1-.06.21,3.47,3.47,0,0,1-3.9,2A3.54,3.54,0,0,1,42,88.26Z"/><path class="cls-2" d="M43.46,85.81a1.53,1.53,0,0,1,2,1.56.65.65,0,0,1-1.11.46,1.72,1.72,0,0,1-.67-1C43.64,86.47,43.56,86.16,43.46,85.81Z"/><path class="cls-2" d="M119.92,94l.83.54c-1.15,2.13-3,3.31-5.12,4.42l.36.34a2.91,2.91,0,0,1-.73,4.8,3.3,3.3,0,0,1-3.75-.41c-.16-.12-.3-.26-.46-.39l-.13,0c-.15.16-.33.33-.48.52a12,12,0,0,1-2,1.85,1.76,1.76,0,0,1-1.29.28c-.32,0-.41-.27-.24-.54a.15.15,0,0,1,0-.06c1.12-.89,1.22-2.21,1.47-3.46a11.12,11.12,0,0,1,.8-2.51,4.78,4.78,0,0,1,3.68-2.81,32.26,32.26,0,0,1,4-.48,2.52,2.52,0,0,0,2.46-1.39A6,6,0,0,1,119.92,94Z"/><path class="cls-2" d="M117.52,84.83a9.83,9.83,0,0,1-1.65,4.28,5.6,5.6,0,0,1-2,1.7c-1.86.88-3.63,2-5.57,2.68a3.55,3.55,0,0,0-1.24,1,7.56,7.56,0,0,0-1.69,5.91c0,.15,0,.3,0,.55a4.6,4.6,0,0,1-1.63-2.2,7.66,7.66,0,0,1,.23-5.17,1.87,1.87,0,0,1,.22-.39A14.79,14.79,0,0,1,107.33,90a2.62,2.62,0,0,1,.59-.33,25.85,25.85,0,0,1,4.14-1.4l.58-.15a5.54,5.54,0,0,0,3.69-2.64A1.1,1.1,0,0,1,117.52,84.83Z"/><path class="cls-2" d="M118.67,102.23a.67.67,0,0,1,.6.63,3.12,3.12,0,0,1-.55,2.78,5.4,5.4,0,0,1-5.2,2.25c-.68-.1-.72-.13-.74-.78,0-.15,0-.3,0-.53a5.3,5.3,0,0,1,.86-.19,6.11,6.11,0,0,0,4.21-2.26,4.44,4.44,0,0,0,.55-1.06A8.21,8.21,0,0,0,118.67,102.23Z"/><path class="cls-2" d="M64,69.44A2.16,2.16,0,0,1,64,67.69a17.61,17.61,0,0,1,4.59-8,8.25,8.25,0,0,1,4.49-2.33,9.37,9.37,0,0,1,6.74,1.58,1.22,1.22,0,0,0,1.35.15,9.36,9.36,0,0,1,4.71-.88,10.65,10.65,0,0,1,2.42.51,1.26,1.26,0,0,0,1.35-.23,10.45,10.45,0,0,1,4.36-2,8.18,8.18,0,0,1,4.24.37,11.18,11.18,0,0,1,2.94,1.5.91.91,0,0,0,1,.1,7.89,7.89,0,0,1,7.39.26.87.87,0,0,0,1.08-.06A9.14,9.14,0,0,1,114.35,57a5.54,5.54,0,0,1,3.87.49,20,20,0,0,1,5.61,4.17,11,11,0,0,1,3,6.9,5.45,5.45,0,0,1-.07.87c-1.28-.27-2.44-.55-3.63-.76-2.3-.39-4.6-.8-6.92-1.11-2.14-.28-4.29-.49-6.45-.65-2.5-.18-5-.31-7.53-.39-3.22-.1-6.44-.18-9.66-.16-2.64,0-5.28.2-7.91.33-1.21,0-2.42.09-3.62.21-2.32.22-4.64.48-7,.73a74.81,74.81,0,0,0-7.58,1.24C65.7,69,64.88,69.24,64,69.44Zm4.84-6.78.34-.82,1,.4a3.38,3.38,0,0,1,.27-.36c.75-.75.79-.81,1.59-.14a1.28,1.28,0,0,0,.2.11c.28-.22.52-.54.82-.62a2.55,2.55,0,0,1,1,.11l.65-.82a.52.52,0,0,1,.78-.15c.25.15.53.27.87.45l.86-1.26.86.22,0-.16a6,6,0,0,0-5-.62c-.31,1.2-.65,1.36-1.94.93a10.69,10.69,0,0,0-2.92,2.48Zm7,3.33a4.2,4.2,0,0,0,0-1.93,1.86,1.86,0,0,0-1-1.52A6.93,6.93,0,0,0,73.54,62a.6.6,0,0,0-.52.13A3.16,3.16,0,0,0,72.73,66a.65.65,0,0,0,.71.3C74.21,66.18,75,66.1,75.79,66Zm19.46-1.25v0a7.66,7.66,0,0,1,.83,0,.82.82,0,0,0,.89-.64,2.8,2.8,0,0,0-1.3-3.49.63.63,0,0,0-.88,0c-.16.15-.35.28-.51.44a2.49,2.49,0,0,0-.73,2.86c.29.71.41.8,1.17.8Zm-13.32-1a6.7,6.7,0,0,0,.1.9c.16.59.29.69.9.64s1.25-.13,1.88-.15a.76.76,0,0,0,.76-.61,2.72,2.72,0,0,0,.11-.89A3.71,3.71,0,0,0,84,60.94a.4.4,0,0,0-.54,0A3.25,3.25,0,0,0,81.93,63.78Zm23.85-3.44a4.37,4.37,0,0,0-1.62,1.87,2.18,2.18,0,0,0,.34,2.27.87.87,0,0,0,.55.3c.52.07,1.06.07,1.58.12a.65.65,0,0,0,.74-.38,2.55,2.55,0,0,0,.09-2.52A4.94,4.94,0,0,0,105.78,60.34Zm8.32,5.16c.88.12,1.72.22,2.56.37a.68.68,0,0,0,.82-.47,2.88,2.88,0,0,0-.52-3.48.48.48,0,0,0-.67-.13,8.2,8.2,0,0,0-1.6,1.09A2.68,2.68,0,0,0,114.1,65.5Zm1.66-4.26a2.63,2.63,0,0,1,1.06-.26c.3.06.54.39.8.59.33-.17.64-.34,1-.49a.61.61,0,0,1,.84.25c.17.25.35.49.51.71,1-.2,1-.2,1.31.5l.35-.11a3.07,3.07,0,0,0,.31-.17,8,8,0,0,0-3.06-2.42c-.37.3-.7.71-1.3.46s-.65-.76-.68-1.26a6.57,6.57,0,0,0-4,.25.64.64,0,0,0-.35.6c0,.06,0,.13.07.22l.55-.3.56.61a8.56,8.56,0,0,1,.88-.31c.56-.13.7-.06.94.47C115.57,60.78,115.65,61,115.76,61.24ZM92.38,64.78,90,62c-.64.59-1.25,1.08-1.78,1.64a12,12,0,0,0-1,1.41Zm-1-5.36c.6.56.6.56,1.27.17l.74-.43.92,1A1.09,1.09,0,0,1,96,60.05a1.28,1.28,0,0,0,.26-.15c.65-.65,1.31-.9,2-.14a.35.35,0,0,0,.58-.06c.08-.13,0-.36,0-.54s-.14-.14-.23-.19a5.92,5.92,0,0,0-2.46-.69c-.18.54-.4,1-1,1s-.88-.49-1.1-.95A5.62,5.62,0,0,0,91.42,59.42Zm17.4,5.42,0,.17,3.84.32-.78-1.25a2.62,2.62,0,0,1-.3.49.62.62,0,0,1-.88.08.56.56,0,0,1-.24-.72.68.68,0,0,1,.8-.41,3.74,3.74,0,0,1,.47.16,1.93,1.93,0,0,0-.66-1.54c-.24.24-.54.41-.65.66A6.11,6.11,0,0,1,108.82,64.84Zm-8.16-2.59a8.51,8.51,0,0,0-2,2.44h4C101.64,63,101.46,62.78,100.66,62.25ZM80.9,65.46a1.47,1.47,0,0,0-.12-.25c-.48-.55-.94-1.11-1.43-1.64a8,8,0,0,0-.84-.67c-.13.43-.22.74-.31,1.05,0,0,0,.09,0,.14.66-.18,1-.1,1.16.26a.63.63,0,0,1-.32.83.6.6,0,0,1-.43,0,8.68,8.68,0,0,1-.74-.64l-.81,1.27ZM98,64a2.8,2.8,0,0,0,1.16-3.58,1.65,1.65,0,0,0-.9,1.13A8,8,0,0,0,98,64ZM80,60.85a2.68,2.68,0,0,0,1.24,3.67c-.09-.64-.16-1.29-.28-1.92A3.18,3.18,0,0,0,80,60.85ZM92.73,64c-.08-1.71-.38-3.17-1.32-3.49A2.7,2.7,0,0,0,92.73,64Zm17-3.33a2.32,2.32,0,0,0-1.07,1.54c-.15.68-.2,1.37-.3,2.08A2.87,2.87,0,0,0,109.69,60.63Zm-32.62.28c-.89,1.32-.24,2.6-.24,4C78,63.44,78,62.32,77.07,60.91ZM71.91,66c-.4-.8-.72-1.5-1.1-2.18a1.93,1.93,0,0,0-1.18-1A2.83,2.83,0,0,0,71.91,66Zm46.35-.15a2.69,2.69,0,0,0,2-3.26,5.41,5.41,0,0,0-1.08,1A23.68,23.68,0,0,0,118.26,65.87Zm-30.6-4.79a4.45,4.45,0,0,0-1.26,3.59C87.53,63.89,88.4,62,87.66,61.08Zm25.56,3.56c0-1.26.6-2.56-.28-3.83A3.12,3.12,0,0,0,113.22,64.64Zm9.93-1a9.93,9.93,0,0,1-1.84,1.18,5.55,5.55,0,0,0-1.91,1.52,7,7,0,0,0,2.06-.91c.7-.35,1.39-.74,2.13-1.14Zm-20.1.41.18,0c-.17-.85-.34-1.71-.53-2.55a2.25,2.25,0,0,0-.22-.56c-.1-.21-.22-.4-.51-.3a.46.46,0,0,0-.28.56A4.56,4.56,0,0,0,103.05,64Zm18.68,2.68,0,.19,1.5.39,1.26-1.17-.34-.75Zm-52.53.23,0-.15-2.83-1.33-.19.6a1.32,1.32,0,0,1,1.28,1.2ZM86.59,61.2c-.54-.83-1-.89-1.43-.13L86,62.23Zm21.45.37a3.4,3.4,0,0,0,.48-.79.53.53,0,0,0-.7-.71,3,3,0,0,0-.66.48Zm11.33.88-.54-.79-.83.54.52,1.14ZM82.72,60.68c.92-.67.92-.67,1.91-.2.24-.21.56-.34.77-.73a7,7,0,0,0-3,.52Zm21.63,0c-.55-.75-.68-.77-1.24-.14l.46,1.22Zm-7-.75-.71.59.86,1,.54-1.08Zm16.86,2.44.88-.74-.32-.88-.87.41Zm-32.7-.23.67-1-.57-.64-.71.42ZM75.14,61l-.44.65,1.13.75C76.07,61.36,76,61.35,75.14,61Zm-4.47,1.63.85.94.38-1.07L71.29,62ZM93.32,60l-.8.45.53,1C93.77,60.69,93.77,60.69,93.32,60ZM69.6,65.58l.1-.19c-.43-.26-.87-.49-1.28-.78s-.74-.6-1.11-.9c-.27.32-.11.49.1.62ZM121,64.18c1.06-.49,1.32-.75,1.4-1.36C121.8,63.09,121,63.16,121,64.18Zm-9.52-4.13c-1,.42-1.21.77-.71,1.43C111.13,61.08,111.57,60.76,111.51,60.05ZM78.76,62.17a1.19,1.19,0,0,0-1-1.55A2.48,2.48,0,0,0,78.76,62.17Zm7.56-2.37-.06.11.82.69.53-.61ZM67.89,63.26l1,.93C68.91,63.42,68.8,63.31,67.89,63.26ZM100.5,60.6a1,1,0,0,0-.29,1C100.92,61.17,101,61,100.5,60.6ZM88.62,62l.19.05c.14-.17.3-.33.42-.51a.29.29,0,0,0-.14-.48.49.49,0,0,0-.44.24A2,2,0,0,0,88.62,62Zm1-1.32.75.83C90.42,60.81,90.39,60.77,89.67,60.66Zm14.91-.89c.25.41.45.35.64.13,0,0,0-.09,0-.18Zm1.63-.06c.3.38.48.43.71.07Zm-27.09.94c0-.43-.08-.55-.5-.52Z"/><path class="cls-2" d="M93.07,82.93l-1.28-1.66c.63-.32,1.26-.66,1.9-1a5.74,5.74,0,0,1,1.19-.46,1.41,1.41,0,0,1,1.88,1.45,9.5,9.5,0,0,1-.25,1.51.58.58,0,0,0,.19,0c.84-.15,1.15,0,1.51.74a1.05,1.05,0,0,0,.77.57A10.34,10.34,0,0,1,99.23,83a2.74,2.74,0,0,1,3.4-1.85,1.78,1.78,0,0,1,1.26,1.63A3.64,3.64,0,0,1,102.36,86a1.44,1.44,0,0,1-1.27.29c-.31-.08-.66-.25-1,.08-.06.07-.39,0-.53-.14a1.7,1.7,0,0,1-.75-1.18,5.54,5.54,0,0,0-.18-.67l-.18,0V85a5.42,5.42,0,0,1-1.23,3.33,3.45,3.45,0,0,1-.26.28,2.7,2.7,0,0,1-2.75.82,2.75,2.75,0,0,1-1.84-2.21c-.08-.34-.11-.69-.18-1a5.44,5.44,0,0,0-1.11-2.29,4.32,4.32,0,0,1-.58-.86,5.92,5.92,0,0,1,2.79,3.36c.24,1,.89,1.34,1.87.94a3,3,0,0,0,1.92-2.88c0-.61-.33-.78-.84-.47a4,4,0,0,0-.79.69.74.74,0,0,1-1.32-.34c0-.25,0-.5-.07-.75a.66.66,0,0,1,.48-.75,1.7,1.7,0,0,0,1-1,1.54,1.54,0,0,0,.12-.73c-.06-.49-.43-.66-.81-.35a12.81,12.81,0,0,0-1.19,1.25C93.5,82.33,93.32,82.59,93.07,82.93Zm7.41,2.92a2.41,2.41,0,0,0,2-2,.93.93,0,0,0-.32-1.07,1,1,0,0,0-1.21.06,1.63,1.63,0,0,0-.71,1.64C100.3,84.91,100.39,85.35,100.48,85.85Z"/><path class="cls-2" d="M96.42,79c.21.16.43.34.65.49a2.34,2.34,0,0,0,2,.29A1.35,1.35,0,0,0,100,79a.92.92,0,0,1,1-.59c.5,0,.74.35.52.81A3.05,3.05,0,0,1,99,81.08a2.43,2.43,0,0,1-2.38-1.3c-.12-.2-.22-.43-.33-.64Z"/><path class="cls-2" d="M97.53,76.85a1.74,1.74,0,0,1,1.5.46.93.93,0,0,1,.25,1c-.15.5-.51.66-.9.32a2.85,2.85,0,0,1-.61-.91A4.14,4.14,0,0,1,97.53,76.85Z"/><path class="cls-2" d="M89.9,64.71a.67.67,0,0,1-.66-.67.66.66,0,0,1,.63-.61.71.71,0,0,1,.72.62A.72.72,0,0,1,89.9,64.71Z"/><path class="cls-2" d="M100.63,63.12a.74.74,0,0,1,.69.66.76.76,0,0,1-.72.64.73.73,0,0,1-.64-.63A.68.68,0,0,1,100.63,63.12Z"/></g></g></svg>