<svg xmlns="http://www.w3.org/2000/svg" viewBox="0 0 53.2 73.46"><defs><style>.cls-1,.cls-2{fill:#60b3b3;stroke:#60b3b3;stroke-miterlimit:10;}.cls-1{stroke-width:0.75px;}.cls-2{stroke-width:0.25px;}</style></defs><title>menu-movil</title><g id="Layer_2" data-name="Layer 2"><g id="Layer_1-2" data-name="Layer 1"><path class="cls-1" d="M52.29,26.47c-2.11-.42-4.22-2.2-5.64-4.75a11,11,0,0,0-8.51-5.62,11,11,0,0,0-5.69-9.55A10.38,10.38,0,0,1,27.75.87a.66.66,0,0,0-1.28,0c-.42,2.12-2.2,4.22-4.75,5.64a11,11,0,0,0-5.63,8.51,11,11,0,0,0-9.54,5.69A10.35,10.35,0,0,1,.87,25.45a.66.66,0,0,0,0,1.28c2.12.42,4.22,2.19,5.64,4.74a11,11,0,0,0,8.51,5.63,11.06,11.06,0,0,0,5.69,9.55,10.37,10.37,0,0,1,4.71,5.67.64.64,0,0,0,.63.5h0a.66.66,0,0,0,.63-.53c.42-2.11,2.19-4.22,4.74-5.64a11,11,0,0,0,5.63-8.51,11,11,0,0,0,9.55-5.69,10.39,10.39,0,0,1,5.67-4.7.66.66,0,0,0,0-1.28ZM35.84,36.76a9.72,9.72,0,0,1-8.59-9.44,9.78,9.78,0,0,1,8.6,9.38S35.84,36.74,35.84,36.76ZM17.35,16.43a9.72,9.72,0,0,1,8.59,9.45,9.78,9.78,0,0,1-8.59-9.38Zm5-8.74a11.45,11.45,0,0,0,4.79-4.77,12.53,12.53,0,0,0,4.67,4.77,9.76,9.76,0,0,1,5,8.35h-.17a11.1,11.1,0,0,0-9.88,6.84,11,11,0,0,0-9.37-7.77A9.69,9.69,0,0,1,22.36,7.69Zm14.4,9.66a9.7,9.7,0,0,1-9.44,8.59,9.78,9.78,0,0,1,9.38-8.59ZM7.69,30.84A11.54,11.54,0,0,0,2.92,26a12.51,12.51,0,0,0,4.77-4.66,9.75,9.75,0,0,1,8.35-5v.18a11.11,11.11,0,0,0,6.84,9.88,11,11,0,0,0-7.77,9.37A9.72,9.72,0,0,1,7.69,30.84Zm18.19-3.59a9.78,9.78,0,0,1-9.38,8.6h-.07a9.74,9.74,0,0,1,9.45-8.6Zm4.95,18.26A11.57,11.57,0,0,0,26,50.28a12.47,12.47,0,0,0-4.66-4.78,9.72,9.72,0,0,1-5-8.34h.17a11.1,11.1,0,0,0,9.88-6.85,11,11,0,0,0,9.37,7.77A9.73,9.73,0,0,1,30.83,45.51ZM45.5,31.82a9.75,9.75,0,0,1-8.34,5v-.17a11.11,11.11,0,0,0-6.83-9.88,11.06,11.06,0,0,0,7.75-9.37,9.72,9.72,0,0,1,7.43,4.95,11.45,11.45,0,0,0,4.77,4.79A12.49,12.49,0,0,0,45.5,31.82Z"/><path class="cls-2" d="M2.53,72.9V62.49H1.4a.44.44,0,0,1-.32-.12A.43.43,0,0,1,1,62.06a.48.48,0,0,1,.12-.33.41.41,0,0,1,.32-.13H3a.64.64,0,0,1,.5.23l4.76,6.51L13,61.85a.53.53,0,0,1,.47-.25h1.62a.39.39,0,0,1,.31.13.44.44,0,0,1,.13.33.4.4,0,0,1-.13.31.41.41,0,0,1-.31.12H13.93V72c0,.19.14.28.44.28h.7a.4.4,0,0,1,.31.14.42.42,0,0,1,.13.32.44.44,0,0,1-.44.44h-.7c-1,0-1.47-.4-1.47-1.18V63.59L8.65,69.41a.49.49,0,0,1-.42.21.5.5,0,0,1-.42-.21L3.56,63.59V72.9a.37.37,0,0,1-.15.31.52.52,0,0,1-.36.13.52.52,0,0,1-.36-.13A.36.36,0,0,1,2.53,72.9Z"/><path class="cls-2" d="M16.87,61.6h8.91c.33,0,.5.15.5.46v1.55a.42.42,0,0,1-.16.32.6.6,0,0,1-.72,0,.41.41,0,0,1-.15-.32V62.49H19V66.9h5.36v-.7a.4.4,0,0,1,.14-.32.57.57,0,0,1,.7,0,.4.4,0,0,1,.14.32v2.31a.4.4,0,0,1-.14.32.57.57,0,0,1-.7,0,.4.4,0,0,1-.14-.32v-.72H19v4.46h6.74a.55.55,0,0,1,.37.13.39.39,0,0,1,.15.31.4.4,0,0,1-.16.32.52.52,0,0,1-.36.14H18.47q-.48,0-.48-.42V62.49H16.87a.41.41,0,0,1-.43-.43.48.48,0,0,1,.12-.33A.4.4,0,0,1,16.87,61.6Z"/><path class="cls-2" d="M30,72.9a.36.36,0,0,1-.16.31.56.56,0,0,1-.72,0A.37.37,0,0,1,29,72.9V62.49H28a.52.52,0,0,1-.36-.13.4.4,0,0,1-.16-.32.41.41,0,0,1,.15-.32A.53.53,0,0,1,28,61.6h1.48a.58.58,0,0,1,.47.19l7.45,9.57V62.49H36.25a.45.45,0,0,1-.32-.12.43.43,0,0,1-.12-.31.48.48,0,0,1,.12-.33.42.42,0,0,1,.32-.13h3.26a.42.42,0,0,1,.32.13.48.48,0,0,1,.12.33.43.43,0,0,1-.12.31.45.45,0,0,1-.32.12H38.39V72.84a.44.44,0,0,1-.49.5.56.56,0,0,1-.46-.27L30,63.54Z"/><path class="cls-2" d="M50.6,61.6c.33,0,.5.15.5.46v7.48a3.32,3.32,0,0,1-1.32,2.77,5.12,5.12,0,0,1-3.26,1,4.77,4.77,0,0,1-3.19-1.07,3.4,3.4,0,0,1-1.25-2.73V62.49H41a.45.45,0,0,1-.32-.12.43.43,0,0,1-.12-.31.48.48,0,0,1,.12-.33A.42.42,0,0,1,41,61.6h1.65a.48.48,0,0,1,.34.13.43.43,0,0,1,.15.33v7.48a2.63,2.63,0,0,0,1,2.1,4.34,4.34,0,0,0,5,0,2.58,2.58,0,0,0,1-2.1V62.49H49a.41.41,0,0,1-.43-.43.48.48,0,0,1,.12-.33A.4.4,0,0,1,49,61.6Zm-3.78-3.27a.52.52,0,0,1,.33-.19.41.41,0,0,1,.3.16.43.43,0,0,1,.15.3.44.44,0,0,1-.19.32l-1.17,1a.45.45,0,0,1-.26.11.31.31,0,0,1-.22-.09.33.33,0,0,1-.09-.22.39.39,0,0,1,.11-.26Z"/></g></g></svg>