<svg xmlns="http://www.w3.org/2000/svg" viewBox="0 0 108.68 104.1"><defs><style>.cls-1{fill:#60b7b7;}</style></defs><title>platicas-icono</title><g id="Layer_2" data-name="Layer 2"><g id="Layer_1-2" data-name="Layer 1"><path class="cls-1" d="M54.91,29.13A14.57,14.57,0,1,0,40.34,14.57,14.57,14.57,0,0,0,54.91,29.13Zm0-23.53a9,9,0,1,1-9,9A9,9,0,0,1,54.91,5.6Z"/><path class="cls-1" d="M101.82,66c-5.62-.8-14-10.22-20.32-22.91C75.37,30.88,55.11,31.36,54.26,31.38a2.65,2.65,0,0,0-.48.07,3.4,3.4,0,0,0-.46-.07c-.82,0-20-.51-26.13,11.75C21.52,54.46,13.17,63,6.87,63.9a8.35,8.35,0,0,0-5.3,2.58,6.13,6.13,0,0,0-1.5,5c.57,4,4.92,7.74,11,6.89,9.81-1.4,18-6.64,24.3-15.6.9,5.53,1,13.69-4.17,19.7-4.49-.72-13.56-1.59-18.58,2a8.42,8.42,0,0,0-3.59,6c-.44,3.82.44,6.9,2.64,9.15,3.24,3.32,9,4.43,17.18,4.43,6.78,0,15.2-.77,25.15-1.68l5.13-.47a2.6,2.6,0,0,0,.84-.22A125.54,125.54,0,0,0,81.08,104c8.74,0,14.22-1.8,16.78-5.51,1.22-1.78,2.32-4.86.56-9.46-2.09-5.47-8.14-6.17-13.18-6.17-1.58,0-3.28.08-5,.19a3,3,0,0,0-.46-.55C74.68,78,73.89,70,74.11,64c9.28,13.08,19.28,15.93,23.55,16.54A10.6,10.6,0,0,0,105,79.06a7.88,7.88,0,0,0,3.61-5.4C109.07,70.52,107.13,66.8,101.82,66ZM15.63,95.76c-.62-.64-1.41-1.81-1.08-4.59a2.76,2.76,0,0,1,1.26-2.11c2.75-2,9.09-1.8,13.85-1.11-.09,3.28,2.23,6.11,6,7.19,1.45.41,2.73.88,4.2,1.42,1,.37,2.08.77,3.32,1.19C29.32,98.88,18.92,99.13,15.63,95.76ZM93.19,91c.71,1.86.73,3.31,0,4.28-.79,1.16-3.42,3.09-12.16,3.09-6.33,0-14.77-1-25.07-3.1a82.83,82.83,0,0,1-14.22-4c-1.51-.56-2.94-1.09-4.6-1.56-1.27-.36-2-1.07-1.92-1.79s1.59-2.24,5-2.24a20.84,20.84,0,0,1,6.83,1.35A50.69,50.69,0,0,0,64,89.55c4.27,0,8.53-.32,12.3-.61,3.23-.25,6.29-.48,8.9-.48C91.41,88.46,92.73,89.83,93.19,91Zm9.49-17.32c-.31.4-1.54,1.68-4.22,1.3C89.9,73.78,81,66.07,74.74,54.38a2.8,2.8,0,0,0-5.2.71c-.18.8-3.89,17.85,3.67,28.47-3,.21-6,.39-9.16.39A45.33,45.33,0,0,1,49,81.79a26.49,26.49,0,0,0-8.7-1.68c-.38,0-.75,0-1.11,0,5-11.59.12-24.79-.14-25.45A2.8,2.8,0,0,0,34,54.38C28.11,65.23,20.13,71.45,10.23,72.86,7.56,73.25,6.33,72,6,71.57a1.41,1.41,0,0,1-.37-1.19c.13-.32.74-.75,2-.93C17.71,68,27.16,55.72,32.2,45.64c4.51-9,20.65-8.67,20.93-8.66a2.54,2.54,0,0,0,.68-.06,2.56,2.56,0,0,0,.62.06c4.87-.15,18.29,1.12,22.06,8.66,5.84,11.69,15.36,24.64,24.54,26,1.29.18,1.89.62,2,.93A1.4,1.4,0,0,1,102.68,73.71Z"/></g></g></svg>