<svg xmlns="http://www.w3.org/2000/svg" viewBox="0 0 678.14 216.78"><defs><style>.cls-1{fill:#8b8b8b;}.cls-2{fill:#ea6e63;}</style></defs><title>religion</title><g id="Layer_2" data-name="Layer 2"><g id="Layer_1-2" data-name="Layer 1"><path class="cls-1" d="M245,91.14v2.64A15.07,15.07,0,0,0,251.49,95a11.32,11.32,0,0,0,5.93-1.24,3.93,3.93,0,0,0,2-3.52,3.68,3.68,0,0,0-1.88-3.39,19.47,19.47,0,0,0-6-1.9,18,18,0,0,1-6.14-2.09,4.48,4.48,0,0,1-2-4.09q0-6,8.92-6a16,16,0,0,1,7.85,1.73,1,1,0,0,1,.58.8v3.14a.78.78,0,0,1-.31.63,1.1,1.1,0,0,1-.73.25,1.07,1.07,0,0,1-.72-.25.75.75,0,0,1-.31-.63V75.78a14.72,14.72,0,0,0-6.26-1.23,10.34,10.34,0,0,0-5.29,1,3.48,3.48,0,0,0-1.66,3.18,3.2,3.2,0,0,0,2.14,3A16.56,16.56,0,0,0,251.51,83c1.64.34,2.81.6,3.5.78a20.3,20.3,0,0,1,2.41.82,7.25,7.25,0,0,1,2.15,1.25,6.19,6.19,0,0,1,1.34,1.82,5.63,5.63,0,0,1,.57,2.58A5.5,5.5,0,0,1,259,95c-1.67,1.18-4.06,1.76-7.18,1.76a25.32,25.32,0,0,1-4.63-.47A10.94,10.94,0,0,1,243.41,95a.87.87,0,0,1-.5-.76V91.14a.8.8,0,0,1,.3-.64,1.16,1.16,0,0,1,.73-.24,1.14,1.14,0,0,1,.73.24A.81.81,0,0,1,245,91.14Z"/><path class="cls-1" d="M268.2,93.4a13.12,13.12,0,0,1,0-17.24,11.88,11.88,0,0,1,16.66,0,13.1,13.1,0,0,1,0,17.25,11.92,11.92,0,0,1-16.66,0Zm1.48-16a11.51,11.51,0,0,0,0,14.67,9.57,9.57,0,0,0,13.71,0,11.51,11.51,0,0,0,0-14.67,9.57,9.57,0,0,0-13.71,0Zm7.54-10.89a.94.94,0,0,1,.66-.39.92.92,0,0,1,.61.31.9.9,0,0,1,.3.61.89.89,0,0,1-.38.65L276,69.84a.83.83,0,0,1-.52.23.65.65,0,0,1-.63-.63.78.78,0,0,1,.23-.52Z"/><path class="cls-1" d="M310.2,92.36v3.18a.78.78,0,0,1-.88.88H294.84a1.15,1.15,0,0,1-.86-.23,1,1,0,0,1-.21-.69V74.93h-2.26a.84.84,0,0,1-.88-.88.91.91,0,0,1,.25-.65.83.83,0,0,1,.63-.26h6.59a.86.86,0,0,1,.63.26.91.91,0,0,1,.25.65.86.86,0,0,1-.25.64.88.88,0,0,1-.63.24h-2.26V94.62h12.29V92.36a.78.78,0,0,1,.31-.63,1.18,1.18,0,0,1,1.45,0A.78.78,0,0,1,310.2,92.36Z"/><path class="cls-1" d="M315.31,93.4a13.12,13.12,0,0,1,0-17.24,11.88,11.88,0,0,1,16.66,0,13.1,13.1,0,0,1,0,17.25,11.92,11.92,0,0,1-16.66,0Zm1.48-16a11.51,11.51,0,0,0,0,14.67,9.57,9.57,0,0,0,13.71,0,11.51,11.51,0,0,0,0-14.67,9.57,9.57,0,0,0-13.71,0Z"/><path class="cls-1" d="M368.38,94.62h1.41a.84.84,0,0,1,.64.27,1,1,0,0,1,.25.65.86.86,0,0,1-.89.88h-1.41a3,3,0,0,1-2.32-.73,2.43,2.43,0,0,1-.63-1.64V85.62H351.37v10.3a.8.8,0,0,1-.3.64,1.23,1.23,0,0,1-1.46,0,.81.81,0,0,1-.31-.64v-21h-2.22a.88.88,0,0,1-.63-.24.86.86,0,0,1-.25-.64.91.91,0,0,1,.25-.65.86.86,0,0,1,.63-.26h3.3a1.08,1.08,0,0,1,.69.26.85.85,0,0,1,.3.65v9.77h14.06V74.93h-2.26a.84.84,0,0,1-.88-.88.91.91,0,0,1,.25-.65.83.83,0,0,1,.63-.26h3.33a1,1,0,0,1,.69.26.83.83,0,0,1,.31.65v20C367.5,94.43,367.79,94.62,368.38,94.62Z"/><path class="cls-1" d="M380.21,73.14h3.41a.85.85,0,0,1,.84.45L395.3,95.5a.78.78,0,0,1,.08.35.88.88,0,0,1-.61.88,1.42,1.42,0,0,1-.43.07.88.88,0,0,1-.88-.49l-3.56-7.2H377.07l-3.56,7.2c-.23.51-.66.65-1.3.42a.86.86,0,0,1-.62-.84,1,1,0,0,1,.08-.35l10.19-20.61h-1.65a.88.88,0,0,1-.63-.24.86.86,0,0,1-.25-.64.91.91,0,0,1,.25-.65A.86.86,0,0,1,380.21,73.14Zm3.26,2.71-5.56,11.49h11.15Z"/><path class="cls-1" d="M412.92,73.14a.82.82,0,0,1,.65-.43,1.4,1.4,0,0,1,.69.2.76.76,0,0,1,.46.67,1.16,1.16,0,0,1-.12.59L405,87.92v8a.78.78,0,0,1-.31.64,1.22,1.22,0,0,1-1.45,0,.78.78,0,0,1-.31-.64V88l-9.61-13.87a.67.67,0,0,1-.12-.34.89.89,0,0,1,.42-.85,1.75,1.75,0,0,1,.79-.23.77.77,0,0,1,.63.46L404,86.23Z"/><path class="cls-1" d="M440.53,73.14h3.33c.67,0,1,.3,1,.91V89.14a6.73,6.73,0,0,1-2.66,5.6,10.43,10.43,0,0,1-6.57,2.06,9.58,9.58,0,0,1-6.43-2.14,6.9,6.9,0,0,1-2.53-5.52V74.93h-2.26a.84.84,0,0,1-.88-.88.91.91,0,0,1,.25-.65.83.83,0,0,1,.63-.26h3.33a1,1,0,0,1,.69.26.86.86,0,0,1,.31.65V89.14a5.27,5.27,0,0,0,1.95,4.24,8.73,8.73,0,0,0,10.13,0,5.23,5.23,0,0,0,2-4.24V74.93h-2.26a.88.88,0,0,1-.63-.24.9.9,0,0,1-.25-.64,1,1,0,0,1,.25-.65A.86.86,0,0,1,440.53,73.14Z"/><path class="cls-1" d="M453.86,95.92a.78.78,0,0,1-.31.64,1.12,1.12,0,0,1-.72.24,1.14,1.14,0,0,1-.73-.24.81.81,0,0,1-.31-.64v-21h-2.1a1,1,0,0,1-.73-.26.84.84,0,0,1,0-1.29,1.13,1.13,0,0,1,.75-.24h3a1.21,1.21,0,0,1,1,.38l15,19.3V74.93h-2.26a.84.84,0,0,1-.89-.88,1,1,0,0,1,.25-.65.87.87,0,0,1,.64-.26H473a.87.87,0,0,1,.64.26,1,1,0,0,1,.24.65.83.83,0,0,1-.88.88h-2.26V95.81a.88.88,0,0,1-1,1,1.09,1.09,0,0,1-.92-.53L453.86,77Z"/><path class="cls-1" d="M483.43,73.14h3.41a.85.85,0,0,1,.84.45L498.52,95.5a.78.78,0,0,1,.08.35.88.88,0,0,1-.62.88,1.32,1.32,0,0,1-.42.07.87.87,0,0,1-.88-.49l-3.56-7.2H480.29l-3.56,7.2c-.23.51-.67.65-1.31.42a.86.86,0,0,1-.61-.84,1,1,0,0,1,.08-.35l10.19-20.61h-1.65a.84.84,0,0,1-.88-.88.91.91,0,0,1,.25-.65A.83.83,0,0,1,483.43,73.14Zm3.25,2.71-5.55,11.49h11.15Z"/><path class="cls-1" d="M512.84,87.5v8.42a.8.8,0,0,1-.3.64,1.16,1.16,0,0,1-.73.24,1.14,1.14,0,0,1-.73-.24.81.81,0,0,1-.31-.64v-21h-2.29a.83.83,0,0,1-.88-.88,1,1,0,0,1,.24-.65.87.87,0,0,1,.64-.26h12q8.38,0,8.39,7.16c0,3.44-1.52,5.67-4.56,6.66l4.94,8.54a.78.78,0,0,1,.08.35.8.8,0,0,1-.44.76,1.66,1.66,0,0,1-.79.23.75.75,0,0,1-.61-.42l-5.25-9c-.66,0-1.25.08-1.76.08Zm0-12.57V85.74h7.66c4.22,0,6.32-1.82,6.32-5.44a4.92,4.92,0,0,0-1.59-4.12,7.56,7.56,0,0,0-4.73-1.25Z"/><path class="cls-1" d="M532.8,73.14h18c.66,0,1,.3,1,.91v3.14a.8.8,0,0,1-.3.64,1.19,1.19,0,0,1-1.46,0,.8.8,0,0,1-.3-.64V74.93H537.12v8.89h10.8V82.4a.82.82,0,0,1,.29-.63,1.13,1.13,0,0,1,1.42,0,.82.82,0,0,1,.29.63v4.68a.82.82,0,0,1-.29.63,1.13,1.13,0,0,1-1.42,0,.82.82,0,0,1-.29-.63V85.62h-10.8v9h13.6a1.08,1.08,0,0,1,.75.25.81.81,0,0,1,.28.63.82.82,0,0,1-.3.65,1.08,1.08,0,0,1-.73.27H536c-.64,0-1-.28-1-.84V74.93H532.8a.84.84,0,0,1-.89-.88,1,1,0,0,1,.25-.65A.87.87,0,0,1,532.8,73.14Z"/><path class="cls-1" d="M573.7,92.36v3.18a.78.78,0,0,1-.88.88H558.34a1.15,1.15,0,0,1-.86-.23,1,1,0,0,1-.21-.69V74.93H555a.84.84,0,0,1-.88-.88.91.91,0,0,1,.25-.65.83.83,0,0,1,.63-.26h6.59a.86.86,0,0,1,.63.26,1,1,0,0,1,.25.65.9.9,0,0,1-.25.64.88.88,0,0,1-.63.24h-2.26V94.62h12.29V92.36a.78.78,0,0,1,.31-.63,1.18,1.18,0,0,1,1.45,0A.78.78,0,0,1,573.7,92.36Z"/><path class="cls-1" d="M578.45,94.62V74.93h-2.26a.84.84,0,0,1-.88-.88.91.91,0,0,1,.25-.65.83.83,0,0,1,.63-.26h6.59a.86.86,0,0,1,.63.26,1,1,0,0,1,.25.65.9.9,0,0,1-.25.64.88.88,0,0,1-.63.24h-2.26V94.62h2.26a.85.85,0,0,1,.63.25.89.89,0,0,1,.25.63.92.92,0,0,1-.25.65.83.83,0,0,1-.63.27h-6.59a.8.8,0,0,1-.63-.27.88.88,0,0,1-.25-.65.85.85,0,0,1,.25-.63.82.82,0,0,1,.63-.25Z"/><path class="cls-1" d="M604.57,95.92V94.39a10.45,10.45,0,0,1-6.82,2.41,10.33,10.33,0,0,1-8.08-3.46,12.59,12.59,0,0,1-3.1-8.73,11.73,11.73,0,0,1,3.2-8.56,10.48,10.48,0,0,1,7.83-3.3,16,16,0,0,1,8,1.88.92.92,0,0,1,.61.8v3.3a.81.81,0,0,1-.31.63,1.15,1.15,0,0,1-.73.25,1.12,1.12,0,0,1-.72-.25.78.78,0,0,1-.31-.63v-2.8a14.25,14.25,0,0,0-6.24-1.38,8.59,8.59,0,0,0-6.69,2.82,10.53,10.53,0,0,0-2.54,7.33,10.76,10.76,0,0,0,2.56,7.41A8.31,8.31,0,0,0,597.71,95a10.21,10.21,0,0,0,6.86-2.48V86.77h-5.75a.85.85,0,0,1-.63-.25.89.89,0,0,1-.25-.63.94.94,0,0,1,.25-.65.83.83,0,0,1,.63-.27h6.82c.67,0,1,.29,1,.88V95.92a.81.81,0,0,1-.31.64,1.14,1.14,0,0,1-.73.24,1.12,1.12,0,0,1-.72-.24A.78.78,0,0,1,604.57,95.92Z"/><path class="cls-1" d="M613.19,94.62V74.93h-2.26a.83.83,0,0,1-.88-.88,1,1,0,0,1,.24-.65.87.87,0,0,1,.64-.26h6.58a.87.87,0,0,1,.64.26,1,1,0,0,1,.25.65.84.84,0,0,1-.89.88h-2.26V94.62h2.26a.86.86,0,0,1,.64.25.89.89,0,0,1,.25.63.92.92,0,0,1-.25.65.84.84,0,0,1-.64.27h-6.58a.84.84,0,0,1-.64-.27.92.92,0,0,1-.24-.65.88.88,0,0,1,.24-.63.86.86,0,0,1,.64-.25Z"/><path class="cls-1" d="M624.54,93.4a13.12,13.12,0,0,1,0-17.24,11.88,11.88,0,0,1,16.66,0,13.1,13.1,0,0,1,0,17.25,11.92,11.92,0,0,1-16.66,0Zm1.48-16a11.48,11.48,0,0,0,0,14.67,9.57,9.57,0,0,0,13.71,0,11.51,11.51,0,0,0,0-14.67,9.57,9.57,0,0,0-13.71,0Zm7.54-10.89a.94.94,0,0,1,.65-.39.92.92,0,0,1,.62.31.9.9,0,0,1,.3.61.92.92,0,0,1-.38.65l-2.38,2.11a.8.8,0,0,1-.51.23.58.58,0,0,1-.44-.19.59.59,0,0,1-.19-.44.78.78,0,0,1,.23-.52Z"/><path class="cls-1" d="M652.18,95.92a.81.81,0,0,1-.31.64,1.23,1.23,0,0,1-1.46,0,.8.8,0,0,1-.3-.64v-21H648a1.07,1.07,0,0,1-.73-.26A.85.85,0,0,1,647,74a.81.81,0,0,1,.28-.64,1.14,1.14,0,0,1,.75-.24h3a1.21,1.21,0,0,1,1,.38l15,19.3V74.93H664.7a.84.84,0,0,1-.88-.88.91.91,0,0,1,.25-.65.83.83,0,0,1,.63-.26h6.59a.86.86,0,0,1,.63.26,1,1,0,0,1,.25.65.9.9,0,0,1-.25.64.88.88,0,0,1-.63.24H669V95.81a.88.88,0,0,1-1,1,1.1,1.1,0,0,1-.92-.53L652.18,77Z"/><path class="cls-1" d="M675.35,95.43a1.41,1.41,0,0,1,.36-1,1.29,1.29,0,0,1,1-.4,1.36,1.36,0,0,1,1,.4,1.34,1.34,0,0,1,.38,1,4,4,0,0,1-.92,2.56,2.42,2.42,0,0,1-1.72,1.15c-.28,0-.42-.11-.42-.34a.61.61,0,0,1,.27-.46,2.75,2.75,0,0,0,.95-1.61A1.19,1.19,0,0,1,675.35,95.43Z"/><path class="cls-1" d="M276.1,138.32v3.18a.78.78,0,0,1-.89.88H260.74a1.14,1.14,0,0,1-.86-.23.94.94,0,0,1-.22-.69V120.89H257.4a.88.88,0,0,1-.63-.24.9.9,0,0,1-.25-.64,1,1,0,0,1,.25-.65.82.82,0,0,1,.63-.26H264a.79.79,0,0,1,.63.26.91.91,0,0,1,.25.65.84.84,0,0,1-.88.88h-2.26v19.69H274v-2.26a.8.8,0,0,1,.3-.63,1.19,1.19,0,0,1,1.46,0A.81.81,0,0,1,276.1,138.32Z"/><path class="cls-1" d="M285.36,119.1h3.41a.85.85,0,0,1,.84.45l10.84,21.91a.67.67,0,0,1,.08.35.87.87,0,0,1-.61.88,1.41,1.41,0,0,1-.42.07.86.86,0,0,1-.88-.49l-3.57-7.2H282.22l-3.56,7.2c-.23.51-.66.65-1.3.42a.85.85,0,0,1-.61-.84,1,1,0,0,1,.07-.35L287,120.89h-1.65a.88.88,0,0,1-.63-.24.9.9,0,0,1-.25-.64,1,1,0,0,1,.25-.65A.82.82,0,0,1,285.36,119.1Zm3.26,2.71-5.55,11.49h11.14Z"/><path class="cls-1" d="M314.78,133.46v8.42a.81.81,0,0,1-.31.64,1.14,1.14,0,0,1-.73.24,1.12,1.12,0,0,1-.72-.24.78.78,0,0,1-.31-.64v-21h-2.3a.88.88,0,0,1-.63-.24.86.86,0,0,1-.25-.64.91.91,0,0,1,.25-.65.82.82,0,0,1,.63-.26h12q8.38,0,8.39,7.16c0,3.44-1.52,5.67-4.56,6.66l4.94,8.54a.85.85,0,0,1-.37,1.11,1.63,1.63,0,0,1-.78.23.75.75,0,0,1-.61-.42l-5.25-9c-.66.05-1.25.08-1.76.08Zm0-12.57V131.7h7.66c4.21,0,6.32-1.82,6.32-5.44a4.92,4.92,0,0,0-1.59-4.12,7.58,7.58,0,0,0-4.73-1.25Z"/><path class="cls-1" d="M334.73,119.1h18c.67,0,1,.3,1,.91v3.14a.78.78,0,0,1-.31.64,1.18,1.18,0,0,1-1.45,0,.78.78,0,0,1-.31-.64v-2.26H339.06v8.89h10.8v-1.42a.82.82,0,0,1,.29-.63,1.12,1.12,0,0,1,1.41,0,.79.79,0,0,1,.29.63V133a.79.79,0,0,1-.29.63,1.12,1.12,0,0,1-1.41,0,.82.82,0,0,1-.29-.63v-1.46h-10.8v9h13.6a1.07,1.07,0,0,1,.74.25.83.83,0,0,1,0,1.28,1,1,0,0,1-.72.27H338q-1,0-1-.84V120.89h-2.26a.87.87,0,0,1-.63-.24.86.86,0,0,1-.25-.64.91.91,0,0,1,.25-.65A.81.81,0,0,1,334.73,119.1Z"/><path class="cls-1" d="M375.63,138.32v3.18a.78.78,0,0,1-.88.88H360.28a1.16,1.16,0,0,1-.87-.23,1,1,0,0,1-.21-.69V120.89h-2.26a.88.88,0,0,1-.63-.24.9.9,0,0,1-.25-.64,1,1,0,0,1,.25-.65.82.82,0,0,1,.63-.26h6.59a.79.79,0,0,1,.63.26.91.91,0,0,1,.25.65.84.84,0,0,1-.88.88h-2.26v19.69h12.3v-2.26a.8.8,0,0,1,.3-.63,1.19,1.19,0,0,1,1.46,0A.8.8,0,0,1,375.63,138.32Z"/><path class="cls-1" d="M380.38,140.58V120.89h-2.26a.88.88,0,0,1-.63-.24.9.9,0,0,1-.25-.64,1,1,0,0,1,.25-.65.82.82,0,0,1,.63-.26h6.59a.79.79,0,0,1,.63.26.91.91,0,0,1,.25.65.84.84,0,0,1-.88.88h-2.26v19.69h2.26a.82.82,0,0,1,.63.25.85.85,0,0,1,.25.63.9.9,0,0,1-.25.65.8.8,0,0,1-.63.27h-6.59a.83.83,0,0,1-.63-.27.94.94,0,0,1-.25-.65.89.89,0,0,1,.25-.63.85.85,0,0,1,.63-.25Z"/><path class="cls-1" d="M406.5,141.88v-1.53a11,11,0,0,1-14.89-1,12.6,12.6,0,0,1-3.11-8.73,11.77,11.77,0,0,1,3.2-8.56,10.48,10.48,0,0,1,7.83-3.3,16,16,0,0,1,8,1.88.9.9,0,0,1,.61.8v3.3a.8.8,0,0,1-.3.63,1.19,1.19,0,0,1-1.46,0,.81.81,0,0,1-.31-.63v-2.8a14.19,14.19,0,0,0-6.24-1.38,8.57,8.57,0,0,0-6.68,2.82,10.49,10.49,0,0,0-2.55,7.33,10.76,10.76,0,0,0,2.57,7.41,8.31,8.31,0,0,0,6.51,2.89,10.19,10.19,0,0,0,6.85-2.48v-5.75h-5.74a.82.82,0,0,1-.63-.25.85.85,0,0,1-.25-.63.9.9,0,0,1,.25-.65.8.8,0,0,1,.63-.27h6.82c.66,0,1,.29,1,.88v10.07a.8.8,0,0,1-.3.64,1.23,1.23,0,0,1-1.46,0A.81.81,0,0,1,406.5,141.88Z"/><path class="cls-1" d="M415.12,140.58V120.89h-2.26a.88.88,0,0,1-.63-.24A.86.86,0,0,1,412,120a.91.91,0,0,1,.25-.65.82.82,0,0,1,.63-.26h6.59a.81.81,0,0,1,.63.26.91.91,0,0,1,.25.65.86.86,0,0,1-.25.64.87.87,0,0,1-.63.24h-2.26v19.69h2.26a.84.84,0,0,1,.63.25.85.85,0,0,1,.25.63.9.9,0,0,1-.25.65.82.82,0,0,1-.63.27h-6.59a.83.83,0,0,1-.63-.27.9.9,0,0,1-.25-.65.85.85,0,0,1,.88-.88Z"/><path class="cls-1" d="M426.48,139.36a13.09,13.09,0,0,1,0-17.24,11.88,11.88,0,0,1,16.66,0,13.13,13.13,0,0,1,0,17.25,11.92,11.92,0,0,1-16.66,0Zm1.47-16a11.51,11.51,0,0,0,0,14.67,9.57,9.57,0,0,0,13.71,0,11.48,11.48,0,0,0,0-14.67,9.57,9.57,0,0,0-13.71,0Zm7.55-10.89a.92.92,0,0,1,.65-.39.9.9,0,0,1,.61.31.88.88,0,0,1,.31.61.92.92,0,0,1-.38.65l-2.38,2.11a.83.83,0,0,1-.52.23.61.61,0,0,1-.44-.19.63.63,0,0,1-.19-.44.83.83,0,0,1,.23-.52Z"/><path class="cls-1" d="M454.11,141.88a.78.78,0,0,1-.31.64,1.12,1.12,0,0,1-.72.24,1.14,1.14,0,0,1-.73-.24.81.81,0,0,1-.31-.64v-21h-2.1a1,1,0,0,1-.73-.26.84.84,0,0,1,0-1.29,1.13,1.13,0,0,1,.75-.24h3a1.21,1.21,0,0,1,1,.38l15,19.3V120.89h-2.26a.84.84,0,0,1-.89-.88,1,1,0,0,1,.25-.65.83.83,0,0,1,.64-.26h6.58a.83.83,0,0,1,.64.26,1,1,0,0,1,.24.65.83.83,0,0,1-.88.88H471v20.88a.88.88,0,0,1-1,1,1.09,1.09,0,0,1-.92-.53L454.11,123Z"/><path class="cls-1" d="M487.2,120.89h-2.3a.88.88,0,0,1-.63-.24A.9.9,0,0,1,484,120a1,1,0,0,1,.25-.65.82.82,0,0,1,.63-.26h10.23a11.34,11.34,0,0,1,8.37,3.15,13.12,13.12,0,0,1,.06,17,11.36,11.36,0,0,1-8.43,3.12H488.2c-.67,0-1-.29-1-.88Zm2.07,0v19.69h5.86a9.24,9.24,0,0,0,6.95-2.58,11.56,11.56,0,0,0-.06-14.46,9.16,9.16,0,0,0-6.89-2.65Z"/><path class="cls-1" d="M510.11,119.1h18c.66,0,1,.3,1,.91v3.14a.8.8,0,0,1-.3.64,1.19,1.19,0,0,1-1.46,0,.8.8,0,0,1-.3-.64v-2.26H514.43v8.89h10.8v-1.42a.82.82,0,0,1,.29-.63,1.13,1.13,0,0,1,1.42,0,.82.82,0,0,1,.29.63V133a.82.82,0,0,1-.29.63,1.13,1.13,0,0,1-1.42,0,.82.82,0,0,1-.29-.63v-1.46h-10.8v9H528a1.08,1.08,0,0,1,.75.25.81.81,0,0,1,.28.63.83.83,0,0,1-.3.65,1.08,1.08,0,0,1-.73.27H513.32q-1,0-1-.84V120.89h-2.25a.84.84,0,0,1-.89-.88,1,1,0,0,1,.25-.65A.83.83,0,0,1,510.11,119.1Z"/><path class="cls-1" d="M551,138.32v3.18a.78.78,0,0,1-.88.88H535.65a1.15,1.15,0,0,1-.86-.23,1,1,0,0,1-.21-.69V120.89h-2.26a.84.84,0,0,1-.88-.88.91.91,0,0,1,.25-.65.79.79,0,0,1,.63-.26h6.59a.82.82,0,0,1,.63.26,1,1,0,0,1,.25.65.9.9,0,0,1-.25.64.88.88,0,0,1-.63.24h-2.26v19.69h12.29v-2.26a.78.78,0,0,1,.31-.63,1.18,1.18,0,0,1,1.45,0A.78.78,0,0,1,551,138.32Z"/><path class="cls-2" d="M568.7,119.1h3.41a.85.85,0,0,1,.84.45l10.84,21.91a.78.78,0,0,1,.08.35.88.88,0,0,1-.61.88,1.41,1.41,0,0,1-.42.07.89.89,0,0,1-.89-.49l-3.56-7.2H565.56l-3.56,7.2c-.23.51-.66.65-1.3.42a.85.85,0,0,1-.61-.84,1,1,0,0,1,.07-.35l10.19-20.61H568.7a.88.88,0,0,1-.63-.24.86.86,0,0,1-.25-.64.91.91,0,0,1,.25-.65A.82.82,0,0,1,568.7,119.1Zm3.26,2.71L566.4,133.3h11.15Z"/><path class="cls-2" d="M587.62,141.88v-21h-2.3a.88.88,0,0,1-.63-.24.9.9,0,0,1-.25-.64,1,1,0,0,1,.25-.65.82.82,0,0,1,.63-.26h3.18a1.26,1.26,0,0,1,1,.45l9.61,13.14,9.58-13.1a1.1,1.1,0,0,1,1-.49h3.25a.79.79,0,0,1,.63.26.91.91,0,0,1,.25.65.84.84,0,0,1-.88.88h-2.3V140c0,.38.3.57.88.57h1.42a.8.8,0,0,1,.63.27.91.91,0,0,1,.25.65.85.85,0,0,1-.88.88h-1.42c-2,0-3-.79-3-2.37V123.12L600,134.84a1,1,0,0,1-.85.42,1,1,0,0,1-.84-.42l-8.58-11.72v18.76a.78.78,0,0,1-.31.64,1.12,1.12,0,0,1-.72.24,1.14,1.14,0,0,1-.73-.24A.81.81,0,0,1,587.62,141.88Z"/><path class="cls-2" d="M619.89,139.36a13.09,13.09,0,0,1,0-17.24,11.88,11.88,0,0,1,16.66,0,13.1,13.1,0,0,1,0,17.25,11.92,11.92,0,0,1-16.66,0Zm1.47-16a11.51,11.51,0,0,0,0,14.67,9.59,9.59,0,0,0,13.72,0,11.51,11.51,0,0,0,0-14.67,9.59,9.59,0,0,0-13.72,0Z"/><path class="cls-2" d="M647.52,133.46v8.42a.8.8,0,0,1-.3.64,1.23,1.23,0,0,1-1.46,0,.81.81,0,0,1-.31-.64v-21h-2.29a.84.84,0,0,1-.88-.88.91.91,0,0,1,.25-.65.79.79,0,0,1,.63-.26h12q8.4,0,8.39,7.16c0,3.44-1.52,5.67-4.56,6.66l4.94,8.54a.78.78,0,0,1,.08.35.8.8,0,0,1-.44.76,1.66,1.66,0,0,1-.78.23.75.75,0,0,1-.62-.42l-5.25-9c-.66.05-1.25.08-1.76.08Zm0-12.57V131.7h7.66c4.22,0,6.32-1.82,6.32-5.44a4.92,4.92,0,0,0-1.59-4.12,7.56,7.56,0,0,0-4.73-1.25Z"/><g id="b"><path class="cls-1" d="M97.1,21.46A7.36,7.36,0,0,1,95,20.34l-.8-.68q2.13,5.39,7.16,4.63A11.12,11.12,0,0,0,106,22.43l-2.26-3.32c-2,2.29-4.24,3.07-6.59,2.35m1.5-5.41-2.09,2.16,2.21,2.26,1.76-2.2L98.6,16.05M111,40.2a7.53,7.53,0,0,0,2.71-4.59,10.52,10.52,0,0,0-.4-5.7q-1-2.81-5.41-4.73a4.84,4.84,0,0,0-2.68-.42q-2.86.38-3.83,4.24a4.59,4.59,0,0,1-1.41,2.33c-1.42,1.33-3.33,1.38-5.75.16a14.62,14.62,0,0,0,2.45-3.38,5.11,5.11,0,0,0-.12-2.3,6.87,6.87,0,0,0-3.58-4.16,4.54,4.54,0,0,0-2.51-.28q-3.17.36-6.74,3.64l1.23,1.6a10.09,10.09,0,0,1,1.43,2.16A17.37,17.37,0,0,1,89,26.66q3-1.87,4.62-.81L94,26a1.11,1.11,0,0,1,.48.55q.39,1-1.47,2.58a5.11,5.11,0,0,1-1,.49,4.88,4.88,0,0,1-2.39.29l.58,1.52a6.06,6.06,0,0,1,.52,2.24l.59-.23a4.93,4.93,0,0,1,1.38-.21c1.39,0,2.32.86,2.77,2.47l.08.68A4.64,4.64,0,0,1,95.22,38q-.8,2.22-3.91,2.3A5.08,5.08,0,0,1,88.94,40a12.2,12.2,0,0,1-5.22-3.62L81.8,34.2l1.69,3.42a17.08,17.08,0,0,0,5.05,5.75l1,.55a7.7,7.7,0,0,0,2.28.65q3.64.39,6-3.34a5.61,5.61,0,0,0,.68-1.9,7.11,7.11,0,0,0-.57-4.58l.74.44a4.48,4.48,0,0,0,1.75.51q2.77.13,4.19-3.83a6.13,6.13,0,0,1,1.41-2.4,2.54,2.54,0,0,1,2.34-1.06,4.12,4.12,0,0,1,1.8.7,6.29,6.29,0,0,1,1.42,2.47c.55,1.34,0,2.81-1.57,4.41a8.52,8.52,0,0,1-4.6,2.69q-2.22.28-4.59-2l0,.91a6.17,6.17,0,0,0,.65,1.94c1,1.84,2.79,2.67,5.41,2.46A7.62,7.62,0,0,0,111,40.2Z"/></g><path class="cls-1" d="M97.76,199.16l3.07-5.36h-6Zm4.29-7.2,4-7-4-7.19H93.63l-4,7.19,4,7Zm5.2-9,2.91-5.2h-6Zm-15.76-5.2h-6l2.9,5.2Zm22,16.07H103.12L97.76,203l-5.2-9.19H82.15l5.2-8.88-5.2-9H92.56l5.2-9.19,5.36,9.19h10.41l-5.2,9ZM110.16,192l-2.91-5.2-3.06,5.2Zm-9.33-16.07-3.07-5.36-2.91,5.36ZM88.42,186.76l-2.9,5.2h6Z"/><path class="cls-1" d="M43.74,150.2a12.74,12.74,0,0,1-1.33-25.41c-.47,0-.93-.07-1.4-.07a15.47,15.47,0,1,0,15.47,15.47c0-.47,0-.93-.07-1.39A12.75,12.75,0,0,1,43.74,150.2Z"/><polygon class="cls-1" points="42.68 130.94 45.61 133.62 49.48 132.72 47.84 136.34 49.89 139.74 45.95 139.3 43.34 142.3 42.54 138.41 38.88 136.86 42.34 134.9 42.68 130.94"/><rect class="cls-1" x="26.84" y="49.53" width="3.47" height="34.67"/><rect class="cls-1" x="26.84" y="47.8" width="3.47" height="27.73" transform="translate(90.24 33.09) rotate(90)"/><path class="cls-1" d="M166.58,80.1a15.56,15.56,0,1,1,15.55-15.56A15.57,15.57,0,0,1,166.58,80.1Zm0-29.47a13.92,13.92,0,1,0,13.91,13.91A13.93,13.93,0,0,0,166.58,50.63Z"/><circle class="cls-1" cx="166.46" cy="64.66" r="4.86"/><path class="cls-1" d="M166.46,69.93a5.27,5.27,0,1,1,5.27-5.27A5.27,5.27,0,0,1,166.46,69.93Zm0-9.72a4.46,4.46,0,1,0,4.45,4.45A4.45,4.45,0,0,0,166.46,60.21Z"/><rect class="cls-1" x="165.64" y="53" width="1.63" height="23.32" transform="translate(7.04 145.13) rotate(-48.01)"/><rect class="cls-1" x="165.64" y="53" width="1.63" height="23.32" transform="translate(-11.05 45.18) rotate(-14.96)"/><rect class="cls-1" x="154.8" y="63.85" width="23.32" height="1.63" transform="translate(54.74 203.98) rotate(-72.5)"/><rect class="cls-1" x="154.8" y="63.85" width="23.32" height="1.63" transform="translate(7.76 146.55) rotate(-48.52)"/><rect class="cls-1" x="154.8" y="63.85" width="23.32" height="1.63" transform="translate(-12.12 63.56) rotate(-20.88)"/><rect class="cls-1" x="165.64" y="53" width="1.63" height="23.32" transform="translate(73.08 216.88) rotate(-79.7)"/><path class="cls-1" d="M165,156.82h-20.7V150h5.2v-2c-6.84-2.48-5.27-15.73-5.2-16.31l.09-.71h20.51l.09.71c1.52,12.12-3.4,15.46-5.19,16.27V150H165ZM146,155.18H163.4v-3.56h-5.2V146.7l.62-.16c.24-.06,6-1.76,4.67-14h-17.6c-.22,2.77-.65,12.66,4.66,14l.62.16v4.92H146Z"/><rect class="cls-1" x="145.15" y="136.12" width="19.07" height="1.63"/><path class="cls-1" d="M145.35,131.55c-1.12-1.7-1-3.91-.73-5.92a1.85,1.85,0,0,1,.56-1.29c.31-.25.76-.29,1-.6s.11-1.28.56-1.67c.65-.57,1.7.53,2.48.14a1.44,1.44,0,0,0,.59-.79c.31-.77.51-2.7,1.13-3.24s1.19-.16,1.71-.46.91-1.2,1.65-1.35,1.46.54,1.8,1.26a6.3,6.3,0,0,0,1.13,2.07,5.67,5.67,0,0,0,1.17.68,8.72,8.72,0,0,1,3.94,4.94,25.75,25.75,0,0,1,1.08,6.36Z"/><path class="cls-1" d="M97.48,64.43a32.22,32.22,0,1,1,32.21-32.22A32.25,32.25,0,0,1,97.48,64.43Zm0-61.93a29.72,29.72,0,1,0,29.71,29.71A29.74,29.74,0,0,0,97.48,2.5Z"/><path class="cls-1" d="M60.1,84.16a32.21,32.21,0,1,1-11.79-44A32.25,32.25,0,0,1,60.1,84.16ZM6.48,53.2A29.71,29.71,0,1,0,47.06,42.32,29.73,29.73,0,0,0,6.48,53.2Z"/><path class="cls-1" d="M69.1,123.62a32.21,32.21,0,1,1-44-11.79A32.24,32.24,0,0,1,69.1,123.62Zm-53.62,31A29.71,29.71,0,1,0,26.35,114,29.74,29.74,0,0,0,15.48,154.59Z"/><path class="cls-1" d="M97.48,152.35a32.22,32.22,0,1,1-32.22,32.22A32.25,32.25,0,0,1,97.48,152.35Zm0,61.93a29.71,29.71,0,1,0-29.71-29.71A29.75,29.75,0,0,0,97.48,214.28Z"/><path class="cls-1" d="M126.85,123.62a32.22,32.22,0,1,1,11.79,44A32.25,32.25,0,0,1,126.85,123.62Zm53.63,31a29.71,29.71,0,1,0-40.59,10.88A29.74,29.74,0,0,0,180.48,154.58Z"/><path class="cls-1" d="M135.85,84.16a32.21,32.21,0,1,1,44,11.79A32.26,32.26,0,0,1,135.85,84.16Zm53.63-31A29.71,29.71,0,1,0,178.6,93.78,29.75,29.75,0,0,0,189.48,53.2Z"/><path class="cls-2" d="M97.48,165.89l-2.75-2.29c-2.16-1.8-53-44.54-53-76.21A34.35,34.35,0,0,1,76,53.08a34,34,0,0,1,21.45,7.54,33.94,33.94,0,0,1,21.44-7.54,34.36,34.36,0,0,1,34.32,34.31c0,31.67-50.85,74.41-53,76.21Z"/></g></g></svg>